<svg width="13" height="12" viewBox="0 0 13 12" fill="none" xmlns="http://www.w3.org/2000/svg">
<path d="M12.4456 10.9094H1.54144C1.24017 10.9094 0.996094 11.1535 0.996094 11.455C0.996094 11.756 1.24017 12.0001 1.54144 12.0001H12.4454C12.7466 12.0001 12.9907 11.756 12.9907 11.455C12.9905 11.1535 12.7464 10.9094 12.4456 10.9094Z" fill="#C9C9C9"/>
<path d="M2.22504 9.48967C1.92377 9.48967 1.67969 9.73387 1.67969 10.0353C1.67969 10.3367 1.92377 10.5811 2.22504 10.5811H11.7661C12.0674 10.5811 12.3115 10.3367 12.3115 10.0353C12.3115 9.73387 12.0674 9.48967 11.7661 9.48967H11.63V4.58025H11.7661C11.917 4.58025 12.0385 4.45815 12.0385 4.3077C12.0385 4.15725 11.9165 4.03516 11.7661 4.03516H2.22504C2.0744 4.03516 1.95262 4.15725 1.95262 4.3077C1.95262 4.45815 2.07466 4.58025 2.22504 4.58025H2.36137V9.48942H2.22504V9.48967ZM10.5393 4.58025V9.48942H8.90378V4.58025H10.5393ZM7.81308 4.58025V9.48942H6.17755V4.58025H7.81308ZM3.45156 4.58025H5.0871V9.48942H3.45156V4.58025Z" fill="#C9C9C9"/>
<path d="M1.54145 3.54528H12.4454C12.4472 3.54528 12.4492 3.54528 12.4507 3.54528C12.7523 3.54528 12.9961 3.30109 12.9961 2.99968C12.9961 2.76008 12.8419 2.55701 12.6277 2.48345L7.21758 0.0478937C7.07537 -0.0159646 6.91274 -0.0159646 6.77027 0.0478937L1.3178 2.50235C1.08317 2.6081 0.954233 2.86302 1.00836 3.11437C1.06223 3.36571 1.28435 3.54528 1.54145 3.54528Z" fill="#C9C9C9"/>
</svg>
