<svg width="1200" height="368" viewBox="0 0 1200 368" fill="none" xmlns="http://www.w3.org/2000/svg">
<mask id="mask0_1_50" style="mask-type:alpha" maskUnits="userSpaceOnUse" x="0" y="0" width="1200" height="368">
<rect width="1200" height="368" fill="#0D0F5A"/>
</mask>
<g mask="url(#mask0_1_50)">
<path d="M895.613 289.343C833.419 235.433 826.822 141.45 880.878 79.4245C934.934 17.3994 931.291 123.132 993.485 177.042C1055.68 230.951 1160.16 212.623 1106.1 274.648C1052.05 336.673 957.807 343.252 895.613 289.343Z" fill="#1A1EA9"/>
<path opacity="0.3" d="M546.099 277.295C652.746 229.902 777.724 277.702 825.246 384.06C872.768 490.418 738.788 422.47 632.141 469.863C525.494 517.256 486.566 662.043 439.044 555.685C391.522 449.328 439.453 324.688 546.099 277.295Z" fill="#158FED"/>
<path d="M237.84 9.77235C165.482 56.8681 68.5515 36.5441 21.3358 -35.6053C15.3827 -44.7021 12.1205 -51.7219 10.7966 -57.1401C9.50145 -62.4406 10.1309 -65.8619 11.5413 -68.3199C13.0301 -70.9144 15.8861 -73.309 20.7019 -75.507C25.5083 -77.7008 31.7433 -79.4635 39.2911 -81.0972C45.5948 -82.4617 52.5646 -83.6866 60.1208 -85.0146C61.5915 -85.273 63.0846 -85.5354 64.5992 -85.8035C73.8362 -87.4384 83.7735 -89.2682 93.955 -91.6678C114.303 -96.4637 135.885 -103.591 155.358 -116.266C174.832 -128.941 190.062 -145.773 202.656 -162.418C208.957 -170.747 214.637 -179.082 219.857 -186.857C220.712 -188.131 221.554 -189.389 222.384 -190.627C226.644 -196.991 230.575 -202.86 234.365 -208.066C238.903 -214.299 243.031 -219.281 246.98 -222.785C250.936 -226.297 254.284 -227.94 257.264 -228.255C260.088 -228.553 263.482 -227.75 267.826 -224.434C272.266 -221.044 277.396 -215.24 283.349 -206.143C330.565 -133.994 310.197 -37.3235 237.84 9.77235Z" stroke="#158FED" stroke-width="11"/>
<path d="M567.429 376.599C401.289 484.736 178.705 438.079 70.2756 272.39C56.7172 251.671 48.679 234.8 45.2887 220.924C41.9011 207.06 43.1601 196.217 48.1579 187.507C53.1629 178.784 61.96 172.125 73.7993 166.721C85.6377 161.318 100.47 157.192 117.482 153.51C131.731 150.425 147.486 147.657 164.268 144.708C167.52 144.136 170.81 143.558 174.136 142.97C194.618 139.344 216.42 135.327 238.696 130.077C283.248 119.576 329.721 104.14 371.382 77.0242C413.044 49.908 445.921 13.6965 473.495 -22.7477C487.282 -40.9703 499.746 -59.256 511.319 -76.4945C513.199 -79.2939 515.055 -82.0655 516.888 -84.8046C526.351 -98.9371 535.235 -112.205 543.802 -123.971C554.03 -138.019 563.788 -149.898 573.514 -158.531C583.24 -167.163 592.894 -172.513 602.916 -173.571C612.923 -174.627 623.381 -171.411 634.743 -162.737C646.114 -154.056 658.364 -139.925 671.923 -119.207C780.353 46.4821 733.57 268.462 567.429 376.599Z" stroke="#158FED"/>
<path opacity="0.5" d="M1097.73 127.47C1209.89 92.1165 1329.56 154.141 1365.01 266.003C1369.44 279.994 1371.33 290.892 1371.05 299.331C1370.77 307.758 1368.33 313.701 1364.13 317.84C1359.91 321.989 1353.86 324.385 1346.25 325.588C1338.64 326.79 1329.52 326.79 1319.21 326.189C1310.58 325.685 1301.13 324.762 1291.07 323.778C1289.12 323.587 1287.14 323.394 1285.15 323.201C1272.86 322.015 1259.75 320.843 1246.16 320.3C1219 319.214 1189.94 320.645 1161.76 329.528C1133.57 338.412 1108.96 353.897 1087.36 370.352C1076.56 378.579 1066.51 387.052 1057.13 395.066C1055.61 396.368 1054.11 397.658 1052.62 398.932C1044.95 405.506 1037.75 411.674 1030.98 417.035C1022.88 423.435 1015.42 428.663 1008.5 432.041C1001.58 435.419 995.247 436.924 989.407 435.944C983.582 434.966 978.159 431.501 973.074 424.765C967.982 418.02 963.248 408.018 958.815 394.027C923.366 282.165 985.557 162.823 1097.73 127.47Z" stroke="#FFC44D"/>
</g>
</svg>
