<svg width="64" height="70" viewBox="0 0 64 70" fill="none" xmlns="http://www.w3.org/2000/svg">
<rect width="57.3526" height="30.3761" rx="4" transform="matrix(0.990681 0.136205 -0.140874 0.990027 5.37796 31.0803)" fill="#C9C9C9" stroke="#EAEAEA" stroke-width="3"/>
<rect width="48.5291" height="57.4976" transform="matrix(0.990681 0.136205 -0.140874 0.990027 14.183 0.53125)" fill="#FFC774"/>
<path d="M4.90991 34.3697C5.12225 32.8774 6.8474 32.1399 8.06761 33.0198L28.5905 47.8184C29.8899 48.7555 29.6037 50.7674 28.0925 51.318L4.22655 60.0138C2.80756 60.5309 1.35447 59.3564 1.56681 57.8641L4.90991 34.3697Z" fill="white"/>
<path d="M58.3867 65.6745C58.1744 67.1668 56.4492 67.9043 55.229 67.0244L34.7062 52.2257C33.4067 51.2887 33.693 49.2768 35.2041 48.7262L59.0701 40.0303C60.4891 39.5133 61.9422 40.6878 61.7298 42.18L58.3867 65.6745Z" fill="white"/>
<path d="M3.29208 61.6813L31.999 47.0623L55.5237 68.8624L3.29208 61.6813Z" fill="white" stroke="#EAEAEA" stroke-width="2"/>
</svg>
