<svg width="104" height="76" viewBox="0 0 104 76" fill="none" xmlns="http://www.w3.org/2000/svg">
<path d="M11.9893 38.3283C6.79693 31.4436 9.73044 21.5139 17.8491 18.4931L45.5058 8.20262C49.6623 6.65606 54.3206 7.32739 57.856 9.98248L86.8543 31.7599C95.0452 37.9111 93.1153 50.6565 83.4607 54.1723L45.8098 67.8833C40.4382 69.8394 34.42 68.0697 30.9934 63.5262L11.9893 38.3283Z" fill="white"/>
<path fill-rule="evenodd" clip-rule="evenodd" d="M46.1086 9.81335L18.4519 20.1038C11.4157 22.7218 8.87336 31.3276 13.3734 37.2943L32.3775 62.4923C35.3472 66.4299 40.563 67.9637 45.2184 66.2684L82.8693 52.5574C91.2366 49.5103 92.9091 38.4644 85.8104 33.1333L56.8121 11.3559C53.7481 9.05481 49.7109 8.47299 46.1086 9.81335ZM17.8491 18.4931C9.73044 21.5139 6.79693 31.4436 11.9893 38.3283L30.9934 63.5262C34.42 68.0697 40.4382 69.8394 45.8098 67.8833L83.4607 54.1723C93.1153 50.6565 95.0452 37.9111 86.8543 31.7599L57.856 9.98248C54.3206 7.32739 49.6623 6.65606 45.5058 8.20262L17.8491 18.4931Z" fill="#EAEAEA"/>
<path fill-rule="evenodd" clip-rule="evenodd" d="M45.9461 2.82225L8.70093 16.6771C1.07448 19.5141 -1.67763 28.849 3.20344 35.3242L28.8912 69.401C32.1124 73.6741 37.7673 75.3405 42.8133 73.5034L93.5572 55.0293C102.626 51.7275 104.435 39.7449 96.7367 33.9582L57.5501 4.5006C54.2274 2.00284 49.8506 1.3698 45.9461 2.82225ZM8.39719 15.8657C0.225991 18.9053 -2.72269 28.907 2.50702 35.8447L28.1948 69.9215C31.646 74.4999 37.7049 76.2852 43.1113 74.317L93.8552 55.8429C103.572 52.3052 105.51 39.4667 97.2618 33.2667L58.0752 3.80906C54.5152 1.13288 49.8258 0.454623 45.6424 2.01082L8.39719 15.8657Z" fill="#F7F8FA"/>
<path d="M73.9659 30.5916L72.5808 31.6204C72.0439 31.3541 71.4868 31.1384 70.9129 30.9765L70.5903 29.2869C70.4517 28.5683 69.8159 28.0542 69.0813 28.0748L66.9455 28.1241C66.5442 28.1334 66.1715 28.2957 65.8949 28.5843C65.6779 28.8108 65.5411 29.0927 65.498 29.401L65.2509 31.1074C64.6639 31.3032 64.096 31.5521 63.5581 31.8575L62.1447 30.9041C61.5364 30.4929 60.7245 30.5796 60.217 31.1094L58.7433 32.6476C58.2357 33.1775 58.1865 33.9896 58.6268 34.5762L59.6704 35.9741C59.4067 36.5054 59.1938 37.0641 59.0351 37.6394L57.3465 37.9536C57.0395 38.0107 56.7598 38.1636 56.5428 38.3902C56.2662 38.6788 56.1174 39.061 56.1302 39.4573L56.1762 41.5893C56.1932 42.3178 56.7345 42.9305 57.4612 43.0352L59.1916 43.2846C59.3841 43.8518 59.6297 44.3928 59.925 44.9112L58.9682 46.3196C58.5557 46.9258 58.6426 47.7349 59.1743 48.2407L60.7179 49.7092C61.2496 50.215 62.0646 50.264 62.6532 49.8253L64.056 48.7853C64.5892 49.0481 65.1499 49.2602 65.7272 49.4184L66.0423 51.0939C66.1809 51.8125 66.8168 52.3266 67.5513 52.306L69.6871 52.2567C70.0885 52.2474 70.4612 52.0851 70.7377 51.7965C70.9547 51.57 71.0916 51.2881 71.1346 50.9798L71.3849 49.2555C71.9328 49.0713 72.4615 48.834 72.9677 48.5543L74.3957 49.5217C75.0041 49.9329 75.8159 49.8462 76.3235 49.3164L77.8007 47.7745C78.3083 47.2447 78.3575 46.4325 77.9172 45.846L76.8847 44.4657C77.1519 43.9307 77.3685 43.3755 77.5308 42.8036L79.2264 42.4822C79.5335 42.4251 79.8132 42.2721 80.0302 42.0456C80.3067 41.7569 80.4521 41.3784 80.4428 40.9785L80.3932 38.8501C80.3763 38.1217 79.835 37.5089 79.1083 37.4042L77.3959 37.158C77.2034 36.5907 76.9647 36.0424 76.6731 35.5275L77.6439 34.1045C78.0565 33.4983 77.9695 32.6893 77.4379 32.1835L75.8942 30.7149C75.3695 30.2018 74.5545 30.1528 73.9659 30.5916Z" fill="#0D0F5A" fill-opacity="0.5"/>
<path d="M64.2574 36.843C62.276 38.9111 62.3525 42.1948 64.4279 44.1692C66.5033 46.1436 69.7985 46.0675 71.7798 43.9993C73.7611 41.9312 73.6847 38.6475 71.6093 36.6731C69.5339 34.6987 66.2387 34.7749 64.2574 36.843Z" fill="white"/>
<path d="M46.331 20.0528L44.2038 21.6328C43.3794 21.2239 42.5237 20.8925 41.6424 20.644L41.147 18.0491C40.9342 16.9457 39.9577 16.1562 38.8296 16.1877L35.5497 16.2635C34.9333 16.2778 34.361 16.5269 33.9363 16.9702C33.603 17.3181 33.3928 17.751 33.3267 18.2244L32.9472 20.845C32.0457 21.1456 31.1736 21.5279 30.3476 21.997L28.1771 20.5327C27.2428 19.9013 25.996 20.0344 25.2165 20.848L22.9534 23.2104C22.1739 24.024 22.0983 25.2713 22.7745 26.172L24.3772 28.3188C23.9722 29.1347 23.6453 29.9928 23.4016 30.8763L20.8083 31.3587C20.3368 31.4465 19.9073 31.6814 19.574 32.0293C19.1493 32.4725 18.9207 33.0594 18.9404 33.668L19.0111 36.9422C19.0371 38.0609 19.8684 39.0019 20.9845 39.1627L23.6419 39.5457C23.9375 40.4168 24.3147 41.2476 24.7682 42.0437L23.2988 44.2066C22.6652 45.1376 22.7988 46.3801 23.6153 47.1568L25.9859 49.412C26.8024 50.1888 28.054 50.2641 28.9579 49.5903L31.1122 47.9932C31.931 48.3967 32.7921 48.7225 33.6787 48.9654L34.1626 51.5386C34.3755 52.642 35.352 53.4316 36.48 53.4L39.76 53.3242C40.3763 53.31 40.9487 53.0608 41.3734 52.6175C41.7067 52.2696 41.9168 51.8368 41.9829 51.3634L42.3673 48.7152C43.2087 48.4324 44.0206 48.068 44.798 47.6385L46.991 49.1242C47.9253 49.7555 49.1721 49.6224 49.9516 48.8088L52.2201 46.4409C52.9996 45.6273 53.0752 44.38 52.399 43.4793L50.8134 41.3595C51.2238 40.5379 51.5563 39.6853 51.8057 38.8071L54.4097 38.3134C54.8812 38.2257 55.3107 37.9908 55.644 37.6429C56.0687 37.1996 56.2919 36.6183 56.2776 36.0041L56.2015 32.7356C56.1755 31.6169 55.3442 30.6759 54.2282 30.5151L51.5984 30.1369C51.3028 29.2658 50.9363 28.4238 50.4884 27.6331L51.9793 25.4477C52.6129 24.5167 52.4794 23.2743 51.6629 22.4975L49.2923 20.2423C48.4865 19.4543 47.2349 19.379 46.331 20.0528Z" fill="#FFC774"/>
<path d="M31.6853 29.4747C28.5482 32.7493 28.6692 37.9485 31.9553 41.0746C35.2413 44.2007 40.4587 44.0802 43.5958 40.8056C46.7329 37.531 46.6119 32.3319 43.3259 29.2057C40.0398 26.0796 34.8224 26.2002 31.6853 29.4747Z" fill="white"/>
</svg>
