<svg width="115" height="56" viewBox="0 0 115 56" fill="none" xmlns="http://www.w3.org/2000/svg">
<rect x="16.5" y="10.5" width="82" height="24" rx="12" fill="#FFC774" stroke="#FFC774"/>
<rect x="0.5" y="0.5" width="114" height="45" rx="15.5" stroke="#F7F8FA"/>
<rect x="9.5" y="5.5" width="97" height="34" rx="14.5" stroke="#EAEAEA"/>
<path d="M65.1078 31.9493C65.0771 31.1255 65.9993 30.6197 66.6762 31.089L82.2486 41.8842C82.99 42.3981 82.7251 43.5547 81.8339 43.6949L75.7806 44.6472C74.172 44.9003 72.7017 45.7068 71.6229 46.9278L67.5633 51.5226C66.9656 52.199 65.8493 51.8001 65.8156 50.898L65.1078 31.9493Z" stroke="#0D0F5A" stroke-opacity="0.5" stroke-width="2"/>
<path opacity="0.7" d="M33.87 25.42C33.3833 25.8933 32.7767 26.13 32.05 26.13C31.3233 26.13 30.7167 25.8933 30.23 25.42C29.7433 24.9467 29.5 24.3467 29.5 23.62C29.5 22.8933 29.74 22.2967 30.22 21.83C30.7067 21.3633 31.3167 21.13 32.05 21.13C32.7833 21.13 33.3933 21.3633 33.88 21.83C34.3667 22.2967 34.61 22.8933 34.61 23.62C34.61 24.3467 34.3633 24.9467 33.87 25.42ZM30.89 24.84C31.1767 25.1733 31.5633 25.34 32.05 25.34C32.5367 25.34 32.92 25.1733 33.2 24.84C33.4867 24.5 33.63 24.0933 33.63 23.62C33.63 23.1467 33.4867 22.7433 33.2 22.41C32.92 22.0767 32.5367 21.91 32.05 21.91C31.5633 21.91 31.1767 22.0767 30.89 22.41C30.61 22.7433 30.47 23.1467 30.47 23.62C30.47 24.0933 30.61 24.5 30.89 24.84ZM37.7963 26V22.03H36.1863V21.26H40.3463V22.03H38.7363V26H37.7963ZM42.3569 26V21.26H46.5569V26H45.6169V22.03H43.2969V26H42.3569ZM49.1772 28.4V21.26H50.0972V22H50.1272C50.2872 21.74 50.5172 21.53 50.8172 21.37C51.1172 21.21 51.4572 21.13 51.8372 21.13C52.5305 21.13 53.0972 21.37 53.5372 21.85C53.9839 22.3233 54.2072 22.9133 54.2072 23.62C54.2072 24.3333 53.9872 24.93 53.5472 25.41C53.1072 25.89 52.5305 26.13 51.8172 26.13C51.4772 26.13 51.1572 26.0567 50.8572 25.91C50.5572 25.7567 50.3205 25.55 50.1472 25.29H50.1172V28.4H49.1772ZM51.6572 25.34C52.1505 25.34 52.5372 25.1733 52.8172 24.84C53.0972 24.5 53.2372 24.0933 53.2372 23.62C53.2372 23.1467 53.0972 22.7433 52.8172 22.41C52.5372 22.0767 52.1505 21.91 51.6572 21.91C51.1905 21.91 50.8072 22.08 50.5072 22.42C50.2072 22.76 50.0572 23.1633 50.0572 23.63C50.0572 24.0967 50.2072 24.5 50.5072 24.84C50.8072 25.1733 51.1905 25.34 51.6572 25.34ZM57.8851 26.12C57.6851 26.12 57.4884 26.0933 57.2951 26.04C57.1017 25.9867 56.9184 25.9067 56.7451 25.8C56.5717 25.6933 56.4317 25.5433 56.3251 25.35C56.2184 25.15 56.1651 24.92 56.1651 24.66C56.1651 24.3867 56.2284 24.15 56.3551 23.95C56.4884 23.7433 56.6551 23.5867 56.8551 23.48C57.0551 23.3667 57.3084 23.28 57.6151 23.22C57.9284 23.1533 58.2217 23.11 58.4951 23.09C58.7751 23.07 59.0984 23.06 59.4651 23.06V22.93C59.4651 22.59 59.3584 22.3333 59.1451 22.16C58.9384 21.98 58.6551 21.89 58.2951 21.89C57.7617 21.89 57.3117 22.0733 56.9451 22.44L56.4451 21.84C56.9384 21.3667 57.5851 21.13 58.3851 21.13C59.0384 21.13 59.5317 21.3033 59.8651 21.65C60.1984 21.99 60.3651 22.4367 60.3651 22.99V25.06C60.3651 25.4733 60.3884 25.7867 60.4351 26H59.5851C59.5317 25.7733 59.5051 25.5467 59.5051 25.32H59.4751C59.1217 25.8533 58.5917 26.12 57.8851 26.12ZM58.0951 25.38C58.5217 25.38 58.8551 25.2533 59.0951 25C59.3417 24.74 59.4651 24.4033 59.4651 23.99V23.74H59.2351C57.8284 23.74 57.1251 24.04 57.1251 24.64C57.1251 24.9 57.2184 25.09 57.4051 25.21C57.5917 25.3233 57.8217 25.38 58.0951 25.38ZM62.935 26V21.26H65.265C65.425 21.26 65.575 21.2733 65.715 21.3C65.8617 21.32 66.005 21.36 66.145 21.42C66.2917 21.4733 66.415 21.5467 66.515 21.64C66.6217 21.7267 66.705 21.8433 66.765 21.99C66.8317 22.1367 66.865 22.3033 66.865 22.49C66.865 22.7367 66.7883 22.9533 66.635 23.14C66.4883 23.32 66.2917 23.4367 66.045 23.49V23.51C66.3517 23.55 66.6017 23.6733 66.795 23.88C66.9883 24.08 67.085 24.3433 67.085 24.67C67.085 25.0833 66.9217 25.41 66.595 25.65C66.275 25.8833 65.845 26 65.305 26H62.935ZM63.875 25.25H65.155C65.8017 25.25 66.125 25.03 66.125 24.59C66.125 24.1433 65.8183 23.92 65.205 23.92H63.875V25.25ZM63.875 23.21H65.185C65.3983 23.21 65.5783 23.16 65.725 23.06C65.8717 22.96 65.945 22.8067 65.945 22.6C65.945 22.1933 65.6583 21.99 65.085 21.99H63.875V23.21ZM69.394 26V21.26H70.334V24.68H70.344L72.774 21.26H73.804V26H72.864V22.57H72.844L70.424 26H69.394ZM77.4194 26V22.03H75.8094V21.26H79.9694V22.03H78.3594V26H77.4194ZM81.9799 26V21.26H82.9199V22.98H83.9999C84.5866 22.98 85.0466 23.11 85.3799 23.37C85.7199 23.6233 85.8899 23.9967 85.8899 24.49C85.8899 24.9767 85.7233 25.35 85.3899 25.61C85.0566 25.87 84.5966 26 84.0099 26H81.9799ZM82.9199 25.25H83.8899C84.5899 25.25 84.9399 25 84.9399 24.5C84.9399 23.98 84.5899 23.72 83.8899 23.72H82.9199V25.25Z" fill="#232323"/>
</svg>
