<svg width="112" height="112" viewBox="0 0 112 112" fill="none" xmlns="http://www.w3.org/2000/svg">
<path d="M77.1588 94.24C64.0425 100.152 49.1147 100.613 35.6591 95.5192C22.2035 90.4258 11.3222 80.1959 5.40883 67.08C4.13269 64.501 3.28493 61.7314 2.89883 58.88C2.64605 57.2585 3.04116 55.6027 3.99883 54.27C5.08042 53.0662 6.51589 52.2365 8.09883 51.9C10.3223 51.3702 12.5941 51.0686 14.8788 51C17.0888 50.87 19.5188 50.82 22.1188 50.77H23.6488C26.8188 50.71 30.2088 50.61 33.7088 50.34C40.7088 49.8 48.1188 48.55 55.1088 45.4C62.0988 42.25 67.9988 37.43 72.9988 32.55C75.5188 30.11 77.8388 27.64 79.9988 25.3L80.9988 24.18C82.7588 22.26 84.4088 20.48 85.9988 18.91C87.5722 17.2493 89.315 15.7579 91.1988 14.46C92.4958 13.5181 94.0559 13.0074 95.6588 13C96.4693 13.0749 97.2568 13.3096 97.976 13.6907C98.6952 14.0717 99.3317 14.5915 99.8488 15.22C101.731 17.3959 103.244 19.8652 104.329 22.53C110.228 35.6432 110.68 50.562 105.585 64.0083C100.491 77.4546 90.2664 88.3283 77.1588 94.24Z" stroke="#EAEAEA"/>
<path d="M35.5783 91.1497C30.374 89.0725 25.6301 85.9902 21.6176 82.0788C17.6051 78.1675 14.4027 73.5038 12.1933 68.3543C9.984 63.2047 8.81107 57.6703 8.74156 52.0673C8.67206 46.4642 9.70734 40.9024 11.7883 35.6997C12.5458 33.5744 13.6471 31.588 15.0483 29.8197C15.8135 28.8221 16.9423 28.1679 18.1883 27.9997C19.4342 27.9564 20.6622 28.3063 21.6983 28.9997C23.2192 29.9533 24.6369 31.0626 25.9283 32.3097C27.2083 33.4997 28.5683 34.8397 30.0183 36.3097L30.8683 37.1597C32.6483 38.9297 34.5583 40.8097 36.6283 42.6397C40.896 46.619 45.8225 49.8267 51.1883 52.1197C56.6558 54.1546 62.4346 55.2271 68.2682 55.2897C71.0382 55.3797 73.7182 55.2897 76.2682 55.2897H77.4783C79.4783 55.2897 81.4783 55.1897 83.1783 55.2197C84.975 55.2034 86.7683 55.3778 88.5283 55.7397C89.7591 55.9418 90.8938 56.5302 91.7682 57.4197C92.1586 57.9096 92.448 58.4721 92.6196 59.0746C92.7913 59.677 92.8418 60.3076 92.7682 60.9297C92.536 63.159 91.938 65.3348 90.9983 67.3697C86.7989 77.8693 78.6025 86.272 68.2105 90.7311C57.8185 95.1902 46.0812 95.3407 35.5783 91.1497Z" fill="#FFC774"/>
<path d="M69.4289 72.2119V66.3319H73.4289V62.2119H69.4289V55.2819H68.2689C67.0989 55.2819 65.9089 55.1719 64.7089 55.0719V62.2419H56.5889L61.3589 54.7019C59.9289 54.5119 58.4889 54.2519 57.0489 53.9219L51.6289 62.1219V66.3619H64.7089V72.2419L69.4289 72.2119Z" fill="#0D0F5A" fill-opacity="0.5"/>
<path d="M38.93 72.2087L46.01 61.2087C46.8741 59.8777 47.6107 58.4681 48.21 56.9987C48.7057 55.6826 48.9499 54.285 48.93 52.8787C48.9302 52.2416 48.8734 51.6057 48.76 50.9787C44.6294 48.9094 40.7925 46.2999 37.35 43.2188C35.0429 43.3896 32.863 44.342 31.17 45.9187C30.1987 46.8333 29.4353 47.9459 28.9315 49.1813C28.4277 50.4166 28.1953 51.7458 28.25 53.0788C28.2327 54.2692 28.4531 55.4511 28.8982 56.5553C29.3434 57.6596 30.0044 58.6639 30.8425 59.5094C31.6807 60.355 32.6791 61.0249 33.7793 61.4798C34.8795 61.9347 36.0595 62.1655 37.25 62.1587C38.2748 62.189 39.2952 62.0121 40.25 61.6387L33.09 72.2087H38.93ZM38.53 58.3687C37.8098 58.397 37.0918 58.2727 36.4231 58.0038C35.7544 57.735 35.1502 57.3277 34.65 56.8088C34.1499 56.2738 33.7614 55.6446 33.5073 54.9578C33.2532 54.271 33.1385 53.5404 33.17 52.8088C33.1367 52.0648 33.2502 51.3216 33.5042 50.6215C33.7581 49.9215 34.1475 49.2783 34.65 48.7287C35.1633 48.1912 35.7861 47.7701 36.4762 47.4941C37.1663 47.2181 37.9076 47.0935 38.65 47.1287C39.3831 47.1029 40.113 47.2361 40.7897 47.5192C41.4664 47.8023 42.0738 48.2286 42.57 48.7687C43.5843 49.8495 44.1306 51.2871 44.09 52.7687C44.1132 53.5062 43.987 54.2408 43.7189 54.9282C43.4508 55.6156 43.0464 56.2417 42.53 56.7687C42.0136 57.3022 41.3903 57.7204 40.701 57.9962C40.0117 58.2719 39.2718 58.3989 38.53 58.3687Z" fill="#0D0F5A" fill-opacity="0.5"/>
<path d="M38.9311 72.2082H33.0911L40.3711 61.6882C39.4163 62.0616 38.3959 62.2385 37.3711 62.2082C36.1806 62.215 35.0006 61.9842 33.9004 61.5293C32.8002 61.0744 31.8017 60.4045 30.9636 59.5589C30.1255 58.7134 29.4645 57.7091 29.0193 56.6048C28.5742 55.5006 28.3538 54.3187 28.3711 53.1282C28.3164 51.7953 28.5488 50.4661 29.0526 49.2308C29.5564 47.9954 30.3198 46.8828 31.2911 45.9682C33.3006 44.1138 35.958 43.1226 38.6911 43.2082C41.3993 43.1438 44.0245 44.1457 46.0011 45.9982C46.9647 46.8718 47.7308 47.941 48.2482 49.1344C48.7655 50.3277 49.0222 51.6177 49.0011 52.9182C48.9937 54.3155 48.7258 55.6992 48.2111 56.9982C47.6108 58.4818 46.8708 59.9048 46.0011 61.2482L38.9311 72.2082ZM44.0511 52.7682C44.0917 51.2866 43.5454 49.849 42.5311 48.7682C42.0349 48.2281 41.4275 47.8018 40.7508 47.5187C40.0741 47.2356 39.3442 47.1024 38.6111 47.1282C37.8687 47.093 37.1274 47.2176 36.4373 47.4936C35.7472 47.7696 35.1244 48.1907 34.6111 48.7282C34.1086 49.2778 33.7192 49.921 33.4653 50.621C33.2113 51.3211 33.0978 52.0643 33.1311 52.8082C33.0996 53.5399 33.2143 54.2704 33.4684 54.9573C33.7225 55.6441 34.111 56.2733 34.6111 56.8082C35.1113 57.3272 35.7155 57.7345 36.3842 58.0033C37.0529 58.2722 37.7709 58.3965 38.4911 58.3682C39.23 58.4035 39.968 58.2828 40.6572 58.0141C41.3463 57.7453 41.9712 57.3344 42.4911 56.8082C43.0124 56.2765 43.4197 55.6439 43.688 54.9492C43.9562 54.2545 44.0798 53.5124 44.0511 52.7682ZM64.7111 72.2082V66.3282H51.6311V62.0882L63.6311 43.8882H69.3911V62.2082H73.3911V66.3282H69.3911V72.2082H64.7111ZM64.7111 62.2082V49.5282H64.6311L56.6311 62.2082H64.7111Z" fill="#0D0F5A" fill-opacity="0.5"/>
<path d="M83.28 36.1199C83.6178 36.2688 83.921 36.486 84.1706 36.758C84.4202 37.0299 84.6107 37.3507 84.73 37.6999C84.8646 38.0468 84.9261 38.4176 84.9106 38.7893C84.8951 39.161 84.803 39.5255 84.64 39.8599C84.4799 40.1995 84.2517 40.5026 83.9696 40.7503C83.6874 40.998 83.3574 41.1851 83 41.2999C82.6538 41.4333 82.2844 41.4957 81.9136 41.4835C81.5428 41.4713 81.1782 41.3848 80.8415 41.229C80.5048 41.0733 80.2029 40.8515 79.9535 40.5768C79.7042 40.3021 79.5125 39.9801 79.39 39.6299C79.2556 39.2848 79.1942 38.9156 79.2097 38.5455C79.2252 38.1755 79.3173 37.8126 79.48 37.4799C79.6367 37.1336 79.8633 36.8234 80.1455 36.5687C80.4277 36.314 80.7595 36.1204 81.12 35.9999C81.4689 35.87 81.8408 35.8135 82.2126 35.8342C82.5843 35.8548 82.9477 35.9521 83.28 36.1199ZM83.76 39.4499C83.8731 39.2266 83.937 38.9816 83.9474 38.7315C83.9577 38.4813 83.9143 38.2319 83.82 37.9999C83.7363 37.7646 83.6041 37.5494 83.4318 37.3685C83.2595 37.1876 83.051 37.045 82.82 36.9499C82.3728 36.7557 81.868 36.7407 81.4101 36.9083C80.9522 37.0758 80.5762 37.4129 80.36 37.8499C80.2554 38.0704 80.1954 38.3094 80.1836 38.5532C80.1717 38.7969 80.2082 39.0406 80.2909 39.2702C80.3736 39.4998 80.501 39.7107 80.6656 39.8909C80.8302 40.0711 81.0288 40.2169 81.25 40.3199C81.4749 40.414 81.7162 40.4624 81.96 40.4624C82.2038 40.4624 82.4451 40.414 82.67 40.3199C82.9004 40.2547 83.1155 40.1442 83.3027 39.9948C83.4898 39.8454 83.6453 39.6602 83.76 39.4499ZM91.46 39.6399C92.1304 39.9648 92.6477 40.5384 92.9017 41.2387C93.1557 41.9391 93.1264 42.7109 92.82 43.3899C92.5847 43.8967 92.2041 44.3221 91.7266 44.6122C91.2491 44.9023 90.6962 45.044 90.138 45.0194C89.5798 44.9948 89.0415 44.8049 88.5914 44.4738C88.1414 44.1427 87.7998 43.6855 87.61 43.1599C87.4742 42.8134 87.412 42.4424 87.4275 42.0705C87.443 41.6986 87.5358 41.334 87.7 40.9999C88.023 40.3252 88.5976 39.8039 89.3005 39.5478C90.0034 39.2917 90.7786 39.3212 91.46 39.6299V39.6399ZM91.94 42.9999C92.0517 42.7779 92.1148 42.5347 92.1251 42.2864C92.1355 42.0381 92.0928 41.7905 92 41.5599C91.9163 41.3246 91.7841 41.1094 91.6118 40.9285C91.4395 40.7476 91.231 40.605 91 40.5099C90.5534 40.3105 90.0468 40.293 89.5875 40.461C89.1282 40.629 88.7524 40.9694 88.54 41.4099C88.432 41.6293 88.37 41.8685 88.358 42.1127C88.3459 42.3569 88.3841 42.601 88.47 42.8299C88.5568 43.0577 88.6908 43.2645 88.8632 43.4368C89.0355 43.6091 89.2423 43.7431 89.47 43.8299C89.9096 44.035 90.4111 44.0631 90.8709 43.9086C91.3307 43.7541 91.7134 43.4288 91.94 42.9999ZM87.94 33.6999L85.24 47.3299L84.31 47.2099L87.02 33.5699L87.94 33.6999Z" fill="#0D0F5A" fill-opacity="0.5"/>
</svg>
