<svg width="112" height="112" viewBox="0 0 112 112" fill="none" xmlns="http://www.w3.org/2000/svg">
<path d="M18.2702 60.9995C17.3809 55.6519 17.5089 50.1736 18.647 44.8777C19.7851 39.5818 21.911 34.572 24.9031 30.1347C27.8953 25.6974 31.6951 21.9194 36.0854 19.0167C40.4758 16.114 45.3706 14.1434 50.4902 13.2176C52.5371 12.7605 54.6423 12.6617 56.7202 12.9251C57.8926 13.0454 58.9714 13.6465 59.7202 14.5965C60.3577 15.6117 60.6759 16.8096 60.6302 18.0229C60.6175 19.7796 60.4299 21.5301 60.0702 23.2461C59.7602 24.8967 59.3502 26.7039 58.9102 28.626C58.8302 29.0021 58.7402 29.3886 58.6602 29.7647C58.1302 32.1256 57.5702 34.6536 57.1302 37.2861C56.0672 42.8155 55.9318 48.4958 56.7302 54.0735C57.7728 59.6073 59.7286 64.9095 62.5102 69.7432C63.7802 72.0727 65.1102 74.256 66.3702 76.2826L66.9802 77.2646C67.9802 78.936 68.9802 80.4821 69.8002 81.9342C70.6863 83.3959 71.4236 84.9504 72.0002 86.5724C72.4336 87.7007 72.5209 88.9418 72.2502 90.1242C71.8532 91.2719 71.0471 92.2151 70.0002 92.7567C68.1151 93.7359 66.0876 94.3819 64.0002 94.6684C53.6624 96.5357 43.0379 94.0379 34.4625 87.7242C25.8871 81.4106 20.0629 71.7979 18.2702 60.9995V60.9995Z" stroke="#EAEAEA"/>
<path d="M4.31031 65.1389C3.20937 59.0438 3.26855 52.7818 4.48447 46.7105C5.70039 40.6392 8.04922 34.8777 11.3968 29.7548C14.7445 24.6319 19.0253 20.248 23.9949 16.8536C28.9645 13.4591 34.5255 11.1205 40.3603 9.97131C64.9003 5.13461 44.1103 30.7493 48.7403 56.3848C53.3703 82.0203 81.6603 97.9616 57.1203 102.798C51.2856 103.948 45.2912 103.887 39.4794 102.616C33.6676 101.346 28.1523 98.8925 23.2483 95.3954C18.3444 91.8983 14.1478 87.4264 10.8984 82.2349C7.64903 77.0435 5.41037 71.2342 4.31031 65.1389V65.1389Z" fill="#FFC774"/>
<path d="M60.0002 38.7404C64.6249 31.4671 71.8256 26.4104 80.0188 24.6825C88.212 22.9546 96.7267 24.6971 103.69 29.5267C118.19 39.5866 95.8902 41.8012 86.2602 56.959C76.6302 72.1168 83.3502 94.4826 68.8502 84.4227C65.3959 82.0319 62.4265 78.9533 60.1119 75.3628C57.7972 71.7724 56.1828 67.7406 55.3609 63.4979C54.5389 59.2552 54.5256 54.8848 55.3217 50.6368C56.1177 46.3887 57.7076 42.3462 60.0002 38.7404Z" fill="#FFC774"/>
<path d="M21.8495 79.8992V73.7567H8.76953V69.3274L20.7695 50.3149H26.5295V69.4528H30.5295V73.7567H26.5295V79.8992H21.8495ZM21.8495 69.4528V56.2067H21.7695L13.7695 69.4528H21.8495ZM52.5495 50.3149V54.8278H40.9995L40.7195 61.221C41.7928 60.9487 42.8953 60.8223 43.9995 60.8449C46.5509 60.7368 49.0484 61.6314 50.9995 63.3521C51.9252 64.2024 52.6544 65.2607 53.1324 66.4476C53.6104 67.6345 53.8248 68.9191 53.7595 70.2049C53.8136 71.6235 53.5735 73.0375 53.0557 74.3502C52.5379 75.6628 51.7546 76.843 50.7595 77.8099C48.7499 79.7151 46.1122 80.7334 43.3995 80.6514C41.2804 80.7212 39.19 80.1244 37.3995 78.9381C35.7429 77.7932 34.4812 76.1237 33.7995 74.1746L38.1595 72.5031C38.5352 73.6777 39.2704 74.6905 40.2517 75.3853C41.2331 76.08 42.406 76.4181 43.5895 76.3474C44.3011 76.3782 45.0109 76.2524 45.6729 75.9781C46.3349 75.7038 46.9342 75.2872 47.4321 74.7553C47.93 74.2233 48.3153 73.588 48.5629 72.8905C48.8105 72.1929 48.915 71.4488 48.8695 70.7064C48.9297 69.8584 48.7909 69.0079 48.465 68.2287C48.1391 67.4495 47.6361 66.7652 46.9995 66.2353C45.6965 65.2883 44.1361 64.8048 42.5495 64.8564C40.2727 64.8436 38.0264 65.4025 35.9995 66.486L36.4795 50.3149H52.5495ZM59.5495 79.8992V75.3028L70.4395 64.1042C72.3595 62.1472 73.3195 60.2112 73.3195 58.296C73.3377 57.6792 73.2293 57.0656 73.0016 56.4962C72.7739 55.9268 72.4322 55.4149 71.9995 54.9949C71.1199 54.1473 69.9555 53.6968 68.7595 53.7414C68.1474 53.7199 67.538 53.8355 66.9722 54.0806C66.4065 54.3256 65.8975 54.6944 65.4795 55.1621C64.6282 56.1783 64.1097 57.4519 63.9995 58.7974L59.3195 58.0453C59.5554 55.6731 60.6588 53.4877 62.3995 51.9446C64.2029 50.3403 66.5118 49.4916 68.8795 49.5628C71.2945 49.4926 73.6571 50.3055 75.5595 51.861C76.4681 52.6157 77.1922 53.5851 77.672 54.6894C78.1519 55.7936 78.3738 57.0011 78.3195 58.2124C78.3432 59.8717 77.9279 61.5057 77.1195 62.9342C76.1876 64.4809 75.0571 65.8869 73.7595 67.1128L65.5995 75.3028H78.3595V79.8992H59.5495ZM93.3995 49.6046C95.7116 49.5161 97.979 50.2859 99.7995 51.7774C101.153 53.0098 102.036 54.7109 102.286 56.5684C102.536 58.4259 102.136 60.3153 101.16 61.8896C100.379 63.0455 99.2538 63.898 97.9595 64.3131V64.3967C99.4922 64.7924 100.852 65.7178 101.818 67.0225C102.783 68.3272 103.299 69.9347 103.28 71.5839C103.338 72.8524 103.111 74.1175 102.618 75.2783C102.125 76.4391 101.379 77.4635 100.44 78.2696C98.4557 79.92 95.9743 80.7791 93.4395 80.6931C90.8802 80.78 88.3734 79.9219 86.3595 78.2696C85.4322 77.455 84.6972 76.4281 84.2116 75.2686C83.726 74.109 83.5028 72.8481 83.5595 71.5839C83.4954 69.908 84.006 68.2632 84.9995 66.9456C85.9618 65.6808 87.2981 64.7845 88.7995 64.3967V64.3131C87.4726 63.9133 86.3148 63.0549 85.5155 61.8784C84.7162 60.7019 84.3228 59.2768 84.3995 57.8364C84.3634 56.6985 84.5793 55.5673 85.0303 54.5309C85.4812 53.4944 86.1551 52.5808 86.9995 51.861C88.7859 50.3134 91.0497 49.4967 93.3695 49.5628L93.3995 49.6046ZM93.3995 53.7831C92.8498 53.7567 92.3006 53.8468 91.7851 54.0478C91.2695 54.2489 90.7982 54.5568 90.3995 54.9531C90.0235 55.3462 89.7298 55.8166 89.537 56.3345C89.3442 56.8524 89.2565 57.4065 89.2795 57.9617C89.2431 59.1197 89.6456 60.2459 90.3995 61.0956C90.9859 61.6994 91.7307 62.1078 92.5394 62.2692C93.3482 62.4305 94.1846 62.3375 94.9427 62.0019C95.7008 61.6663 96.3466 61.1033 96.7982 60.3841C97.2498 59.6648 97.4869 58.8218 97.4795 57.9617C97.4984 57.3957 97.397 56.8323 97.1826 56.3121C96.9682 55.7919 96.6461 55.3278 96.2395 54.9531C95.8635 54.5574 95.4165 54.2429 94.924 54.0278C94.4315 53.8127 93.9033 53.7012 93.3695 53.6996L93.3995 53.7831ZM93.3995 66.5278C92.7522 66.5115 92.1082 66.6286 91.5043 66.8724C90.9003 67.1162 90.3482 67.4818 89.8795 67.9485C89.4163 68.4189 89.0524 68.9853 88.8113 69.6114C88.5702 70.2375 88.4572 70.9094 88.4795 71.5839C88.4514 72.2491 88.558 72.913 88.7924 73.5323C89.0268 74.1515 89.3836 74.7121 89.8395 75.1774C90.8182 76.0834 92.0926 76.5621 93.3995 76.5146C94.6829 76.5657 95.9337 76.0851 96.8795 75.1774C97.3485 74.7204 97.7166 74.1623 97.9584 73.5417C98.2001 72.9212 98.3097 72.2531 98.2795 71.5839C98.2987 70.9122 98.1801 70.2441 97.9317 69.6243C97.6834 69.0045 97.311 68.4474 96.8395 67.9903C96.3966 67.4936 95.859 67.0994 95.2613 66.8331C94.6637 66.5668 94.0192 66.4344 93.3695 66.4442L93.3995 66.5278Z" fill="#0D0F5A" fill-opacity="0.5"/>
<path d="M45.74 41.4238C45.487 41.7615 45.1614 42.032 44.7896 42.2135C44.4177 42.395 44.0102 42.4824 43.6 42.4685C43.2043 42.4921 42.8083 42.4291 42.4374 42.2833C42.0666 42.1375 41.729 41.9122 41.4464 41.6219C41.1639 41.3317 40.9426 40.9829 40.7968 40.5979C40.651 40.213 40.584 39.8004 40.6 39.3868C40.5872 38.9797 40.6542 38.5742 40.7969 38.1951C40.9397 37.816 41.1551 37.4715 41.43 37.1826C41.7148 36.8888 42.0544 36.6592 42.4277 36.5083C42.801 36.3573 43.2 36.2882 43.6 36.3051C44.0033 36.304 44.4022 36.3931 44.77 36.5663C45.134 36.7292 45.451 36.9885 45.69 37.3184L45.06 37.7989C44.9125 37.5603 44.7049 37.3687 44.46 37.2453C44.2046 37.0917 43.9146 37.0123 43.62 37.0154C43.3283 37.0028 43.0374 37.0571 42.7679 37.1744C42.4984 37.2917 42.2568 37.4692 42.06 37.6945C41.86 37.9222 41.7049 38.1889 41.6036 38.4793C41.5024 38.7696 41.457 39.078 41.47 39.3868C41.447 40.0098 41.6588 40.6174 42.06 41.0791C42.2555 41.2997 42.4943 41.4737 42.7601 41.5891C43.0259 41.7045 43.3123 41.7586 43.6 41.7477C43.896 41.7586 44.19 41.6939 44.4567 41.5592C44.7233 41.4245 44.9544 41.2238 45.13 40.9746L45.74 41.4238ZM54.98 41.4865V42.2909H49.54V41.3507L53 37.6945C53.2899 37.4319 53.5274 37.1123 53.699 36.7538C53.8706 36.3953 53.9729 36.005 54 35.6052C54.0087 35.3764 53.9694 35.1485 53.8847 34.9373C53.8001 34.7261 53.6722 34.5369 53.51 34.383C53.1865 34.0904 52.7729 33.9294 52.345 33.9294C51.9171 33.9294 51.5035 34.0904 51.18 34.383C50.8655 34.6847 50.6517 35.0838 50.57 35.5216L49.72 35.344C49.8292 34.7283 50.1491 34.1751 50.62 33.7875C51.1006 33.3826 51.7027 33.168 52.32 33.1816C52.9836 33.1562 53.6336 33.3826 54.15 33.8188C54.4009 34.035 54.6008 34.3085 54.7343 34.6182C54.8679 34.928 54.9314 35.2657 54.92 35.6052C54.9255 36.0895 54.8045 36.5663 54.57 36.9841C54.2861 37.4551 53.9505 37.8898 53.57 38.2795L50.51 41.4134L54.98 41.4865ZM59.37 33.1921C59.839 33.176 60.3009 33.3149 60.69 33.589C61.0688 33.8442 61.3705 34.2064 61.56 34.6337C61.7681 35.1204 61.916 35.633 62 36.1588C62.2 37.2844 62.2 38.4388 62 39.5644C61.9107 40.0767 61.7595 40.5752 61.55 41.0478C61.3578 41.4732 61.0567 41.8347 60.68 42.0924C60.2878 42.3584 59.8274 42.4933 59.36 42.4789C58.8826 42.5078 58.4082 42.3839 58 42.1238C57.6226 41.8639 57.3187 41.5032 57.12 41.0791C56.9211 40.6105 56.7735 40.1199 56.68 39.6166C56.5888 39.0471 56.5453 38.4704 56.55 37.893C56.5502 37.4355 56.5769 36.9785 56.63 36.5245C56.7153 36.0818 56.8391 35.6482 57 35.2291C57.1187 34.8561 57.2906 34.5039 57.51 34.1845C57.7235 33.892 57.9968 33.6529 58.31 33.4846C58.6348 33.2972 58.999 33.1968 59.37 33.1921V33.1921ZM59.37 33.9546C59.03 33.9469 58.6992 34.0695 58.44 34.2994C58.1644 34.5587 57.9607 34.8907 57.85 35.2604C57.7102 35.6597 57.6097 36.0727 57.55 36.4931C57.4884 36.9464 57.4584 37.4038 57.46 37.8616C57.458 38.3195 57.4881 38.7768 57.55 39.2301C57.611 39.6503 57.7114 40.0632 57.85 40.4628C57.9655 40.8242 58.1688 41.1481 58.44 41.403C58.7028 41.6249 59.032 41.7433 59.37 41.7372C59.7019 41.7438 60.025 41.6251 60.28 41.403C60.5588 41.1531 60.7664 40.8278 60.88 40.4628C61.0209 40.0639 61.1214 39.6508 61.18 39.2301C61.2496 38.7776 61.283 38.3199 61.28 37.8616C61.2826 37.4034 61.2492 36.9457 61.18 36.4931C61.1226 36.0722 61.022 35.6589 60.88 35.2604C60.7698 34.8879 60.5619 34.555 60.28 34.2994C60.0284 34.07 59.7038 33.9471 59.37 33.9546V33.9546ZM67.15 33.4114V42.2909H66.29V34.5605L64.75 35.929L64.22 35.3022L66.38 33.4428L67.15 33.4114ZM74.61 33.4114L72.23 37.2871C72.5899 37.0469 73.0139 36.9335 73.44 36.9632C73.7853 36.9529 74.129 37.0169 74.4497 37.1512C74.7704 37.2855 75.0612 37.4873 75.3041 37.7439C75.547 38.0006 75.7368 38.3067 75.8617 38.6433C75.9865 38.9798 76.0438 39.3395 76.03 39.7002C76.0418 40.0745 75.9785 40.4472 75.8441 40.7945C75.7098 41.1417 75.5074 41.4557 75.25 41.7163C74.7 42.2303 73.9879 42.5144 73.25 42.5144C72.512 42.5144 71.8 42.2303 71.25 41.7163C70.9925 41.4557 70.7902 41.1417 70.6558 40.7945C70.5215 40.4472 70.4582 40.0745 70.47 39.7002C70.51 38.8373 70.7764 38.0025 71.24 37.2871L73.56 33.3905L74.61 33.4114ZM71.91 38.2795C71.5644 38.6708 71.3811 39.189 71.4 39.7211C71.3903 39.9879 71.4322 40.254 71.5233 40.5035C71.6143 40.753 71.7527 40.9808 71.93 41.1731C72.1057 41.3628 72.3175 41.5118 72.5518 41.6108C72.786 41.7097 73.0375 41.7564 73.29 41.7477C73.5427 41.7584 73.7948 41.7126 74.0293 41.6136C74.2638 41.5145 74.4754 41.3644 74.65 41.1731C74.9922 40.776 75.1816 40.2606 75.1816 39.7263C75.1816 39.192 74.9922 38.6766 74.65 38.2795C74.4751 38.088 74.2637 37.9369 74.0294 37.8362C73.7951 37.7354 73.5432 37.6871 73.29 37.6945C73.0336 37.6861 72.7784 37.7339 72.5408 37.8346C72.3031 37.9353 72.0883 38.0869 71.91 38.2795V38.2795ZM80.91 42.2909V36.42H84.63V37.1408H81.67V42.2909H80.91ZM88.38 42.4371C87.9849 42.4504 87.5914 42.3794 87.2235 42.2285C86.8556 42.0777 86.5209 41.8501 86.24 41.5596C85.7005 40.9641 85.4 40.1753 85.4 39.3555C85.4 38.5356 85.7005 37.7468 86.24 37.1513C86.8239 36.5874 87.5898 36.2742 88.385 36.2742C89.1801 36.2742 89.9461 36.5874 90.53 37.1513C91.0857 37.738 91.3974 38.5301 91.3974 39.3555C91.3974 40.1808 91.0857 40.9729 90.53 41.5596C90.2424 41.8585 89.898 42.091 89.5191 42.2422C89.1401 42.3933 88.735 42.4597 88.33 42.4371H88.38ZM88.38 41.7163C88.6693 41.7287 88.9577 41.6754 89.2253 41.56C89.4929 41.4445 89.7333 41.2698 89.93 41.0478C90.3109 40.5736 90.5197 39.9744 90.5197 39.3555C90.5197 38.7365 90.3109 38.1373 89.93 37.6631C89.7343 37.4392 89.4942 37.2625 89.2266 37.1453C88.9589 37.028 88.67 36.973 88.38 36.9841C88.0826 36.9723 87.7865 37.0299 87.5131 37.1528C87.2398 37.2757 86.9962 37.4607 86.8 37.6945C86.4198 38.1669 86.2114 38.7644 86.2114 39.3816C86.2114 39.9988 86.4198 40.5962 86.8 41.0687C86.9962 41.2842 87.2342 41.4534 87.498 41.5651C87.7619 41.6768 88.0455 41.7284 88.33 41.7163H88.38ZM92.21 44.1921V41.5492H92.85C93.519 40.4946 93.8354 39.2385 93.75 37.9765V36.42H97.84V41.5492H98.74V44.1921H97.98V42.2909H92.98V44.1921H92.21ZM93.78 41.5492H97V37.1408H94.5V38.1855C94.5274 39.3575 94.262 40.5169 93.73 41.5492H93.78ZM101.78 42.4371C101.297 42.4426 100.825 42.2891 100.43 41.9984C100.234 41.8437 100.077 41.6406 99.9741 41.4073C99.8711 41.174 99.825 40.9177 99.84 40.6613C99.835 40.3996 99.8827 40.1398 99.98 39.8987C100.072 39.6732 100.225 39.4807 100.42 39.345C100.61 39.1997 100.819 39.0836 101.04 39.0003C101.309 38.9018 101.587 38.8352 101.87 38.8018C102.171 38.7555 102.475 38.7276 102.78 38.7182C103.067 38.7182 103.4 38.7182 103.78 38.7182V38.5302C103.804 38.3206 103.781 38.1082 103.713 37.9093C103.646 37.7105 103.535 37.5308 103.39 37.3841C103.244 37.2374 103.069 37.1278 102.876 37.0639C102.684 36.9999 102.48 36.9834 102.28 37.0154C101.971 37.0057 101.664 37.0618 101.377 37.1803C101.09 37.2989 100.829 37.4774 100.61 37.7049L100.16 37.1408C100.454 36.8546 100.801 36.6331 101.179 36.4895C101.557 36.346 101.958 36.2832 102.36 36.3051C102.934 36.2778 103.498 36.4753 103.94 36.8588C104.147 37.058 104.309 37.3029 104.415 37.5757C104.52 37.8485 104.567 38.1424 104.55 38.4362V41.006C104.544 41.4466 104.574 41.887 104.64 42.3222H103.91C103.86 42.0079 103.833 41.6902 103.83 41.3716V41.3716C103.598 41.7314 103.278 42.0198 102.904 42.2072C102.529 42.3945 102.114 42.4739 101.7 42.4371H101.78ZM102 41.7372C102.245 41.7493 102.489 41.705 102.715 41.6075C102.941 41.51 103.145 41.3617 103.31 41.1731C103.638 40.7971 103.814 40.3028 103.8 39.7942V39.3555H103.56C103.18 39.3555 102.83 39.3555 102.56 39.3555C102.256 39.3771 101.954 39.4295 101.66 39.5121C101.397 39.5771 101.155 39.7141 100.96 39.9091C100.877 39.9947 100.812 40.0974 100.769 40.2107C100.726 40.324 100.706 40.4454 100.71 40.5672C100.699 40.7319 100.729 40.8967 100.795 41.0464C100.861 41.1961 100.963 41.3259 101.09 41.4238C101.335 41.6042 101.621 41.7124 101.92 41.7372H102Z" fill="#0D0F5A" fill-opacity="0.5"/>
<mask id="mask0_1_438" style="mask-type:alpha" maskUnits="userSpaceOnUse" x="3" y="9" width="65" height="95">
<path d="M4.31129 65.1389C3.21035 59.0438 3.26953 52.7818 4.48545 46.7105C5.70136 40.6392 8.0502 34.8777 11.3978 29.7548C14.7454 24.6319 19.0263 20.248 23.9959 16.8536C28.9655 13.4591 34.5264 11.1205 40.3613 9.97131C64.9013 5.13461 44.1113 30.7493 48.7413 56.3848C53.3713 82.0203 81.6613 97.9616 57.1213 102.798C51.2866 103.948 45.2922 103.887 39.4804 102.616C33.6686 101.346 28.1533 98.8925 23.2493 95.3954C18.3453 91.8983 14.1488 87.4264 10.8994 82.2349C7.65001 77.0435 5.41135 71.2342 4.31129 65.1389V65.1389Z" fill="#FFC774"/>
</mask>
<g mask="url(#mask0_1_438)">
<path d="M21.8495 79.8992V73.7567H8.76953V69.3274L20.7695 50.3149H26.5295V69.4528H30.5295V73.7567H26.5295V79.8992H21.8495ZM21.8495 69.4528V56.2067H21.7695L13.7695 69.4528H21.8495ZM52.5495 50.3149V54.8278H40.9995L40.7195 61.221C41.7928 60.9487 42.8953 60.8223 43.9995 60.8449C46.5509 60.7368 49.0484 61.6314 50.9995 63.3521C51.9252 64.2024 52.6544 65.2607 53.1324 66.4476C53.6104 67.6345 53.8248 68.9191 53.7595 70.2049C53.8136 71.6235 53.5735 73.0375 53.0557 74.3502C52.5379 75.6628 51.7546 76.843 50.7595 77.8099C48.7499 79.7151 46.1122 80.7334 43.3995 80.6514C41.2804 80.7212 39.19 80.1244 37.3995 78.9381C35.7429 77.7932 34.4812 76.1237 33.7995 74.1746L38.1595 72.5031C38.5352 73.6777 39.2704 74.6905 40.2517 75.3853C41.2331 76.08 42.406 76.4181 43.5895 76.3474C44.3011 76.3782 45.0109 76.2524 45.6729 75.9781C46.3349 75.7038 46.9342 75.2872 47.4321 74.7553C47.93 74.2233 48.3153 73.588 48.5629 72.8905C48.8105 72.1929 48.915 71.4488 48.8695 70.7064C48.9297 69.8584 48.7909 69.0079 48.465 68.2287C48.1391 67.4495 47.6361 66.7652 46.9995 66.2353C45.6965 65.2883 44.1361 64.8048 42.5495 64.8564C40.2727 64.8436 38.0264 65.4025 35.9995 66.486L36.4795 50.3149H52.5495ZM59.5495 79.8992V75.3028L70.4395 64.1042C72.3595 62.1472 73.3195 60.2112 73.3195 58.296C73.3377 57.6792 73.2293 57.0656 73.0016 56.4962C72.7739 55.9268 72.4322 55.4149 71.9995 54.9949C71.1199 54.1473 69.9555 53.6968 68.7595 53.7414C68.1474 53.7199 67.538 53.8355 66.9722 54.0806C66.4065 54.3256 65.8975 54.6944 65.4795 55.1621C64.6282 56.1783 64.1097 57.4519 63.9995 58.7974L59.3195 58.0453C59.5554 55.6731 60.6588 53.4877 62.3995 51.9446C64.2029 50.3403 66.5118 49.4916 68.8795 49.5628C71.2945 49.4926 73.6571 50.3055 75.5595 51.861C76.4681 52.6157 77.1922 53.5851 77.672 54.6894C78.1519 55.7936 78.3738 57.0011 78.3195 58.2124C78.3432 59.8717 77.9279 61.5057 77.1195 62.9342C76.1876 64.4809 75.0571 65.8869 73.7595 67.1128L65.5995 75.3028H78.3595V79.8992H59.5495ZM93.3995 49.6046C95.7116 49.5161 97.979 50.2859 99.7995 51.7774C101.153 53.0098 102.036 54.7109 102.286 56.5684C102.536 58.4259 102.136 60.3153 101.16 61.8896C100.379 63.0455 99.2538 63.898 97.9595 64.3131V64.3967C99.4922 64.7924 100.852 65.7178 101.818 67.0225C102.783 68.3272 103.299 69.9347 103.28 71.5839C103.338 72.8524 103.111 74.1175 102.618 75.2783C102.125 76.4391 101.379 77.4635 100.44 78.2696C98.4557 79.92 95.9743 80.7791 93.4395 80.6931C90.8802 80.78 88.3734 79.9219 86.3595 78.2696C85.4322 77.455 84.6972 76.4281 84.2116 75.2686C83.726 74.109 83.5028 72.8481 83.5595 71.5839C83.4954 69.908 84.006 68.2632 84.9995 66.9456C85.9618 65.6808 87.2981 64.7845 88.7995 64.3967V64.3131C87.4726 63.9133 86.3148 63.0549 85.5155 61.8784C84.7162 60.7019 84.3228 59.2768 84.3995 57.8364C84.3634 56.6985 84.5793 55.5673 85.0303 54.5309C85.4812 53.4944 86.1551 52.5808 86.9995 51.861C88.7859 50.3134 91.0497 49.4967 93.3695 49.5628L93.3995 49.6046ZM93.3995 53.7831C92.8498 53.7567 92.3006 53.8468 91.7851 54.0478C91.2695 54.2489 90.7982 54.5568 90.3995 54.9531C90.0235 55.3462 89.7298 55.8166 89.537 56.3345C89.3442 56.8524 89.2565 57.4065 89.2795 57.9617C89.2431 59.1197 89.6456 60.2459 90.3995 61.0956C90.9859 61.6994 91.7307 62.1078 92.5394 62.2692C93.3482 62.4305 94.1846 62.3375 94.9427 62.0019C95.7008 61.6663 96.3466 61.1033 96.7982 60.3841C97.2498 59.6648 97.4869 58.8218 97.4795 57.9617C97.4984 57.3957 97.397 56.8323 97.1826 56.3121C96.9682 55.7919 96.6461 55.3278 96.2395 54.9531C95.8635 54.5574 95.4165 54.2429 94.924 54.0278C94.4315 53.8127 93.9033 53.7012 93.3695 53.6996L93.3995 53.7831ZM93.3995 66.5278C92.7522 66.5115 92.1082 66.6286 91.5043 66.8724C90.9003 67.1162 90.3482 67.4818 89.8795 67.9485C89.4163 68.4189 89.0524 68.9853 88.8113 69.6114C88.5702 70.2375 88.4572 70.9094 88.4795 71.5839C88.4514 72.2491 88.558 72.913 88.7924 73.5323C89.0268 74.1515 89.3836 74.7121 89.8395 75.1774C90.8182 76.0834 92.0926 76.5621 93.3995 76.5146C94.6829 76.5657 95.9337 76.0851 96.8795 75.1774C97.3485 74.7204 97.7166 74.1623 97.9584 73.5417C98.2001 72.9212 98.3097 72.2531 98.2795 71.5839C98.2987 70.9122 98.1801 70.2441 97.9317 69.6243C97.6834 69.0045 97.311 68.4474 96.8395 67.9903C96.3966 67.4936 95.859 67.0994 95.2613 66.8331C94.6637 66.5668 94.0192 66.4344 93.3695 66.4442L93.3995 66.5278Z" fill="#0D0F5A" fill-opacity="0.5"/>
<path d="M45.74 41.4238C45.487 41.7615 45.1614 42.032 44.7896 42.2135C44.4177 42.395 44.0102 42.4824 43.6 42.4685C43.2043 42.4921 42.8083 42.4291 42.4374 42.2833C42.0666 42.1375 41.729 41.9122 41.4464 41.6219C41.1639 41.3317 40.9426 40.9829 40.7968 40.5979C40.651 40.213 40.584 39.8004 40.6 39.3868C40.5872 38.9797 40.6542 38.5742 40.7969 38.1951C40.9397 37.816 41.1551 37.4715 41.43 37.1826C41.7148 36.8888 42.0544 36.6592 42.4277 36.5083C42.801 36.3573 43.2 36.2882 43.6 36.3051C44.0033 36.304 44.4022 36.3931 44.77 36.5663C45.134 36.7292 45.451 36.9885 45.69 37.3184L45.06 37.7989C44.9125 37.5603 44.7049 37.3687 44.46 37.2453C44.2046 37.0917 43.9146 37.0123 43.62 37.0154C43.3283 37.0028 43.0374 37.0571 42.7679 37.1744C42.4984 37.2917 42.2568 37.4692 42.06 37.6945C41.86 37.9222 41.7049 38.1889 41.6036 38.4793C41.5024 38.7696 41.457 39.078 41.47 39.3868C41.447 40.0098 41.6588 40.6174 42.06 41.0791C42.2555 41.2997 42.4943 41.4737 42.7601 41.5891C43.0259 41.7045 43.3123 41.7586 43.6 41.7477C43.896 41.7586 44.19 41.6939 44.4567 41.5592C44.7233 41.4245 44.9544 41.2238 45.13 40.9746L45.74 41.4238ZM54.98 41.4865V42.2909H49.54V41.3507L53 37.6945C53.2899 37.4319 53.5274 37.1123 53.699 36.7538C53.8706 36.3953 53.9729 36.005 54 35.6052C54.0087 35.3764 53.9694 35.1485 53.8847 34.9373C53.8001 34.7261 53.6722 34.5369 53.51 34.383C53.1865 34.0904 52.7729 33.9294 52.345 33.9294C51.9171 33.9294 51.5035 34.0904 51.18 34.383C50.8655 34.6847 50.6517 35.0838 50.57 35.5216L49.72 35.344C49.8292 34.7283 50.1491 34.1751 50.62 33.7875C51.1006 33.3826 51.7027 33.168 52.32 33.1816C52.9836 33.1562 53.6336 33.3826 54.15 33.8188C54.4009 34.035 54.6008 34.3085 54.7343 34.6182C54.8679 34.928 54.9314 35.2657 54.92 35.6052C54.9255 36.0895 54.8045 36.5663 54.57 36.9841C54.2861 37.4551 53.9505 37.8898 53.57 38.2795L50.51 41.4134L54.98 41.4865ZM59.37 33.1921C59.839 33.176 60.3009 33.3149 60.69 33.589C61.0688 33.8442 61.3705 34.2064 61.56 34.6337C61.7681 35.1204 61.916 35.633 62 36.1588C62.2 37.2844 62.2 38.4388 62 39.5644C61.9107 40.0767 61.7595 40.5752 61.55 41.0478C61.3578 41.4732 61.0567 41.8347 60.68 42.0924C60.2878 42.3584 59.8274 42.4933 59.36 42.4789C58.8826 42.5078 58.4082 42.3839 58 42.1238C57.6226 41.8639 57.3187 41.5032 57.12 41.0791C56.9211 40.6105 56.7735 40.1199 56.68 39.6166C56.5888 39.0471 56.5453 38.4704 56.55 37.893C56.5502 37.4355 56.5769 36.9785 56.63 36.5245C56.7153 36.0818 56.8391 35.6482 57 35.2291C57.1187 34.8561 57.2906 34.5039 57.51 34.1845C57.7235 33.892 57.9968 33.6529 58.31 33.4846C58.6348 33.2972 58.999 33.1968 59.37 33.1921V33.1921ZM59.37 33.9546C59.03 33.9469 58.6992 34.0695 58.44 34.2994C58.1644 34.5587 57.9607 34.8907 57.85 35.2604C57.7102 35.6597 57.6097 36.0727 57.55 36.4931C57.4884 36.9464 57.4584 37.4038 57.46 37.8616C57.458 38.3195 57.4881 38.7768 57.55 39.2301C57.611 39.6503 57.7114 40.0632 57.85 40.4628C57.9655 40.8242 58.1688 41.1481 58.44 41.403C58.7028 41.6249 59.032 41.7433 59.37 41.7372C59.7019 41.7438 60.025 41.6251 60.28 41.403C60.5588 41.1531 60.7664 40.8278 60.88 40.4628C61.0209 40.0639 61.1214 39.6508 61.18 39.2301C61.2496 38.7776 61.283 38.3199 61.28 37.8616C61.2826 37.4034 61.2492 36.9457 61.18 36.4931C61.1226 36.0722 61.022 35.6589 60.88 35.2604C60.7698 34.8879 60.5619 34.555 60.28 34.2994C60.0284 34.07 59.7038 33.9471 59.37 33.9546V33.9546ZM67.15 33.4114V42.2909H66.29V34.5605L64.75 35.929L64.22 35.3022L66.38 33.4428L67.15 33.4114ZM74.61 33.4114L72.23 37.2871C72.5899 37.0469 73.0139 36.9335 73.44 36.9632C73.7853 36.9529 74.129 37.0169 74.4497 37.1512C74.7704 37.2855 75.0612 37.4873 75.3041 37.7439C75.547 38.0006 75.7368 38.3067 75.8617 38.6433C75.9865 38.9798 76.0438 39.3395 76.03 39.7002C76.0418 40.0745 75.9785 40.4472 75.8441 40.7945C75.7098 41.1417 75.5074 41.4557 75.25 41.7163C74.7 42.2303 73.9879 42.5144 73.25 42.5144C72.512 42.5144 71.8 42.2303 71.25 41.7163C70.9925 41.4557 70.7902 41.1417 70.6558 40.7945C70.5215 40.4472 70.4582 40.0745 70.47 39.7002C70.51 38.8373 70.7764 38.0025 71.24 37.2871L73.56 33.3905L74.61 33.4114ZM71.91 38.2795C71.5644 38.6708 71.3811 39.189 71.4 39.7211C71.3903 39.9879 71.4322 40.254 71.5233 40.5035C71.6143 40.753 71.7527 40.9808 71.93 41.1731C72.1057 41.3628 72.3175 41.5118 72.5518 41.6108C72.786 41.7097 73.0375 41.7564 73.29 41.7477C73.5427 41.7584 73.7948 41.7126 74.0293 41.6136C74.2638 41.5145 74.4754 41.3644 74.65 41.1731C74.9922 40.776 75.1816 40.2606 75.1816 39.7263C75.1816 39.192 74.9922 38.6766 74.65 38.2795C74.4751 38.088 74.2637 37.9369 74.0294 37.8362C73.7951 37.7354 73.5432 37.6871 73.29 37.6945C73.0336 37.6861 72.7784 37.7339 72.5408 37.8346C72.3031 37.9353 72.0883 38.0869 71.91 38.2795V38.2795ZM80.91 42.2909V36.42H84.63V37.1408H81.67V42.2909H80.91ZM88.38 42.4371C87.9849 42.4504 87.5914 42.3794 87.2235 42.2285C86.8556 42.0777 86.5209 41.8501 86.24 41.5596C85.7005 40.9641 85.4 40.1753 85.4 39.3555C85.4 38.5356 85.7005 37.7468 86.24 37.1513C86.8239 36.5874 87.5898 36.2742 88.385 36.2742C89.1801 36.2742 89.9461 36.5874 90.53 37.1513C91.0857 37.738 91.3974 38.5301 91.3974 39.3555C91.3974 40.1808 91.0857 40.9729 90.53 41.5596C90.2424 41.8585 89.898 42.091 89.5191 42.2422C89.1401 42.3933 88.735 42.4597 88.33 42.4371H88.38ZM88.38 41.7163C88.6693 41.7287 88.9577 41.6754 89.2253 41.56C89.4929 41.4445 89.7333 41.2698 89.93 41.0478C90.3109 40.5736 90.5197 39.9744 90.5197 39.3555C90.5197 38.7365 90.3109 38.1373 89.93 37.6631C89.7343 37.4392 89.4942 37.2625 89.2266 37.1453C88.9589 37.028 88.67 36.973 88.38 36.9841C88.0826 36.9723 87.7865 37.0299 87.5131 37.1528C87.2398 37.2757 86.9962 37.4607 86.8 37.6945C86.4198 38.1669 86.2114 38.7644 86.2114 39.3816C86.2114 39.9988 86.4198 40.5962 86.8 41.0687C86.9962 41.2842 87.2342 41.4534 87.498 41.5651C87.7619 41.6768 88.0455 41.7284 88.33 41.7163H88.38ZM92.21 44.1921V41.5492H92.85C93.519 40.4946 93.8354 39.2385 93.75 37.9765V36.42H97.84V41.5492H98.74V44.1921H97.98V42.2909H92.98V44.1921H92.21ZM93.78 41.5492H97V37.1408H94.5V38.1855C94.5274 39.3575 94.262 40.5169 93.73 41.5492H93.78ZM101.78 42.4371C101.297 42.4426 100.825 42.2891 100.43 41.9984C100.234 41.8437 100.077 41.6406 99.9741 41.4073C99.8711 41.174 99.825 40.9177 99.84 40.6613C99.835 40.3996 99.8827 40.1398 99.98 39.8987C100.072 39.6732 100.225 39.4807 100.42 39.345C100.61 39.1997 100.819 39.0836 101.04 39.0003C101.309 38.9018 101.587 38.8352 101.87 38.8018C102.171 38.7555 102.475 38.7276 102.78 38.7182C103.067 38.7182 103.4 38.7182 103.78 38.7182V38.5302C103.804 38.3206 103.781 38.1082 103.713 37.9093C103.646 37.7105 103.535 37.5308 103.39 37.3841C103.244 37.2374 103.069 37.1278 102.876 37.0639C102.684 36.9999 102.48 36.9834 102.28 37.0154C101.971 37.0057 101.664 37.0618 101.377 37.1803C101.09 37.2989 100.829 37.4774 100.61 37.7049L100.16 37.1408C100.454 36.8546 100.801 36.6331 101.179 36.4895C101.557 36.346 101.958 36.2832 102.36 36.3051C102.934 36.2778 103.498 36.4753 103.94 36.8588C104.147 37.058 104.309 37.3029 104.415 37.5757C104.52 37.8485 104.567 38.1424 104.55 38.4362V41.006C104.544 41.4466 104.574 41.887 104.64 42.3222H103.91C103.86 42.0079 103.833 41.6902 103.83 41.3716V41.3716C103.598 41.7314 103.278 42.0198 102.904 42.2072C102.529 42.3945 102.114 42.4739 101.7 42.4371H101.78ZM102 41.7372C102.245 41.7493 102.489 41.705 102.715 41.6075C102.941 41.51 103.145 41.3617 103.31 41.1731C103.638 40.7971 103.814 40.3028 103.8 39.7942V39.3555H103.56C103.18 39.3555 102.83 39.3555 102.56 39.3555C102.256 39.3771 101.954 39.4295 101.66 39.5121C101.397 39.5771 101.155 39.7141 100.96 39.9091C100.877 39.9947 100.812 40.0974 100.769 40.2107C100.726 40.324 100.706 40.4454 100.71 40.5672C100.699 40.7319 100.729 40.8967 100.795 41.0464C100.861 41.1961 100.963 41.3259 101.09 41.4238C101.335 41.6042 101.621 41.7124 101.92 41.7372H102Z" fill="#0D0F5A" fill-opacity="0.5"/>
</g>
<mask id="mask1_1_438" style="mask-type:alpha" maskUnits="userSpaceOnUse" x="54" y="24" width="55" height="63">
<path d="M60.0002 38.7404C64.6249 31.4671 71.8256 26.4104 80.0188 24.6825C88.212 22.9546 96.7267 24.6971 103.69 29.5267C118.19 39.5866 95.8902 41.8012 86.2602 56.959C76.6302 72.1168 83.3502 94.4826 68.8502 84.4227C65.3959 82.0319 62.4265 78.9533 60.1119 75.3628C57.7972 71.7724 56.1828 67.7406 55.3609 63.4979C54.5389 59.2552 54.5256 54.8848 55.3217 50.6368C56.1177 46.3887 57.7076 42.3462 60.0002 38.7404Z" fill="#FFC774"/>
</mask>
<g mask="url(#mask1_1_438)">
<path d="M21.8495 79.8992V73.7567H8.76953V69.3274L20.7695 50.3149H26.5295V69.4528H30.5295V73.7567H26.5295V79.8992H21.8495ZM21.8495 69.4528V56.2067H21.7695L13.7695 69.4528H21.8495ZM52.5495 50.3149V54.8278H40.9995L40.7195 61.221C41.7928 60.9487 42.8953 60.8223 43.9995 60.8449C46.5509 60.7368 49.0484 61.6314 50.9995 63.3521C51.9252 64.2024 52.6544 65.2607 53.1324 66.4476C53.6104 67.6345 53.8248 68.9191 53.7595 70.2049C53.8136 71.6235 53.5735 73.0375 53.0557 74.3502C52.5379 75.6628 51.7546 76.843 50.7595 77.8099C48.7499 79.7151 46.1122 80.7334 43.3995 80.6514C41.2804 80.7212 39.19 80.1244 37.3995 78.9381C35.7429 77.7932 34.4812 76.1237 33.7995 74.1746L38.1595 72.5031C38.5352 73.6777 39.2704 74.6905 40.2517 75.3853C41.2331 76.08 42.406 76.4181 43.5895 76.3474C44.3011 76.3782 45.0109 76.2524 45.6729 75.9781C46.3349 75.7038 46.9342 75.2872 47.4321 74.7553C47.93 74.2233 48.3153 73.588 48.5629 72.8905C48.8105 72.1929 48.915 71.4488 48.8695 70.7064C48.9297 69.8584 48.7909 69.0079 48.465 68.2287C48.1391 67.4495 47.6361 66.7652 46.9995 66.2353C45.6965 65.2883 44.1361 64.8048 42.5495 64.8564C40.2727 64.8436 38.0264 65.4025 35.9995 66.486L36.4795 50.3149H52.5495ZM59.5495 79.8992V75.3028L70.4395 64.1042C72.3595 62.1472 73.3195 60.2112 73.3195 58.296C73.3377 57.6792 73.2293 57.0656 73.0016 56.4962C72.7739 55.9268 72.4322 55.4149 71.9995 54.9949C71.1199 54.1473 69.9555 53.6968 68.7595 53.7414C68.1474 53.7199 67.538 53.8355 66.9722 54.0806C66.4065 54.3256 65.8975 54.6944 65.4795 55.1621C64.6282 56.1783 64.1097 57.4519 63.9995 58.7974L59.3195 58.0453C59.5554 55.6731 60.6588 53.4877 62.3995 51.9446C64.2029 50.3403 66.5118 49.4916 68.8795 49.5628C71.2945 49.4926 73.6571 50.3055 75.5595 51.861C76.4681 52.6157 77.1922 53.5851 77.672 54.6894C78.1519 55.7936 78.3738 57.0011 78.3195 58.2124C78.3432 59.8717 77.9279 61.5057 77.1195 62.9342C76.1876 64.4809 75.0571 65.8869 73.7595 67.1128L65.5995 75.3028H78.3595V79.8992H59.5495ZM93.3995 49.6046C95.7116 49.5161 97.979 50.2859 99.7995 51.7774C101.153 53.0098 102.036 54.7109 102.286 56.5684C102.536 58.4259 102.136 60.3153 101.16 61.8896C100.379 63.0455 99.2538 63.898 97.9595 64.3131V64.3967C99.4922 64.7924 100.852 65.7178 101.818 67.0225C102.783 68.3272 103.299 69.9347 103.28 71.5839C103.338 72.8524 103.111 74.1175 102.618 75.2783C102.125 76.4391 101.379 77.4635 100.44 78.2696C98.4557 79.92 95.9743 80.7791 93.4395 80.6931C90.8802 80.78 88.3734 79.9219 86.3595 78.2696C85.4322 77.455 84.6972 76.4281 84.2116 75.2686C83.726 74.109 83.5028 72.8481 83.5595 71.5839C83.4954 69.908 84.006 68.2632 84.9995 66.9456C85.9618 65.6808 87.2981 64.7845 88.7995 64.3967V64.3131C87.4726 63.9133 86.3148 63.0549 85.5155 61.8784C84.7162 60.7019 84.3228 59.2768 84.3995 57.8364C84.3634 56.6985 84.5793 55.5673 85.0303 54.5309C85.4812 53.4944 86.1551 52.5808 86.9995 51.861C88.7859 50.3134 91.0497 49.4967 93.3695 49.5628L93.3995 49.6046ZM93.3995 53.7831C92.8498 53.7567 92.3006 53.8468 91.7851 54.0478C91.2695 54.2489 90.7982 54.5568 90.3995 54.9531C90.0235 55.3462 89.7298 55.8166 89.537 56.3345C89.3442 56.8524 89.2565 57.4065 89.2795 57.9617C89.2431 59.1197 89.6456 60.2459 90.3995 61.0956C90.9859 61.6994 91.7307 62.1078 92.5394 62.2692C93.3482 62.4305 94.1846 62.3375 94.9427 62.0019C95.7008 61.6663 96.3466 61.1033 96.7982 60.3841C97.2498 59.6648 97.4869 58.8218 97.4795 57.9617C97.4984 57.3957 97.397 56.8323 97.1826 56.3121C96.9682 55.7919 96.6461 55.3278 96.2395 54.9531C95.8635 54.5574 95.4165 54.2429 94.924 54.0278C94.4315 53.8127 93.9033 53.7012 93.3695 53.6996L93.3995 53.7831ZM93.3995 66.5278C92.7522 66.5115 92.1082 66.6286 91.5043 66.8724C90.9003 67.1162 90.3482 67.4818 89.8795 67.9485C89.4163 68.4189 89.0524 68.9853 88.8113 69.6114C88.5702 70.2375 88.4572 70.9094 88.4795 71.5839C88.4514 72.2491 88.558 72.913 88.7924 73.5323C89.0268 74.1515 89.3836 74.7121 89.8395 75.1774C90.8182 76.0834 92.0926 76.5621 93.3995 76.5146C94.6829 76.5657 95.9337 76.0851 96.8795 75.1774C97.3485 74.7204 97.7166 74.1623 97.9584 73.5417C98.2001 72.9212 98.3097 72.2531 98.2795 71.5839C98.2987 70.9122 98.1801 70.2441 97.9317 69.6243C97.6834 69.0045 97.311 68.4474 96.8395 67.9903C96.3966 67.4936 95.859 67.0994 95.2613 66.8331C94.6637 66.5668 94.0192 66.4344 93.3695 66.4442L93.3995 66.5278Z" fill="#0D0F5A" fill-opacity="0.5"/>
<path d="M45.74 41.4238C45.487 41.7615 45.1614 42.032 44.7896 42.2135C44.4177 42.395 44.0102 42.4824 43.6 42.4685C43.2043 42.4921 42.8083 42.4291 42.4374 42.2833C42.0666 42.1375 41.729 41.9122 41.4464 41.6219C41.1639 41.3317 40.9426 40.9829 40.7968 40.5979C40.651 40.213 40.584 39.8004 40.6 39.3868C40.5872 38.9797 40.6542 38.5742 40.7969 38.1951C40.9397 37.816 41.1551 37.4715 41.43 37.1826C41.7148 36.8888 42.0544 36.6592 42.4277 36.5083C42.801 36.3573 43.2 36.2882 43.6 36.3051C44.0033 36.304 44.4022 36.3931 44.77 36.5663C45.134 36.7292 45.451 36.9885 45.69 37.3184L45.06 37.7989C44.9125 37.5603 44.7049 37.3687 44.46 37.2453C44.2046 37.0917 43.9146 37.0123 43.62 37.0154C43.3283 37.0028 43.0374 37.0571 42.7679 37.1744C42.4984 37.2917 42.2568 37.4692 42.06 37.6945C41.86 37.9222 41.7049 38.1889 41.6036 38.4793C41.5024 38.7696 41.457 39.078 41.47 39.3868C41.447 40.0098 41.6588 40.6174 42.06 41.0791C42.2555 41.2997 42.4943 41.4737 42.7601 41.5891C43.0259 41.7045 43.3123 41.7586 43.6 41.7477C43.896 41.7586 44.19 41.6939 44.4567 41.5592C44.7233 41.4245 44.9544 41.2238 45.13 40.9746L45.74 41.4238ZM54.98 41.4865V42.2909H49.54V41.3507L53 37.6945C53.2899 37.4319 53.5274 37.1123 53.699 36.7538C53.8706 36.3953 53.9729 36.005 54 35.6052C54.0087 35.3764 53.9694 35.1485 53.8847 34.9373C53.8001 34.7261 53.6722 34.5369 53.51 34.383C53.1865 34.0904 52.7729 33.9294 52.345 33.9294C51.9171 33.9294 51.5035 34.0904 51.18 34.383C50.8655 34.6847 50.6517 35.0838 50.57 35.5216L49.72 35.344C49.8292 34.7283 50.1491 34.1751 50.62 33.7875C51.1006 33.3826 51.7027 33.168 52.32 33.1816C52.9836 33.1562 53.6336 33.3826 54.15 33.8188C54.4009 34.035 54.6008 34.3085 54.7343 34.6182C54.8679 34.928 54.9314 35.2657 54.92 35.6052C54.9255 36.0895 54.8045 36.5663 54.57 36.9841C54.2861 37.4551 53.9505 37.8898 53.57 38.2795L50.51 41.4134L54.98 41.4865ZM59.37 33.1921C59.839 33.176 60.3009 33.3149 60.69 33.589C61.0688 33.8442 61.3705 34.2064 61.56 34.6337C61.7681 35.1204 61.916 35.633 62 36.1588C62.2 37.2844 62.2 38.4388 62 39.5644C61.9107 40.0767 61.7595 40.5752 61.55 41.0478C61.3578 41.4732 61.0567 41.8347 60.68 42.0924C60.2878 42.3584 59.8274 42.4933 59.36 42.4789C58.8826 42.5078 58.4082 42.3839 58 42.1238C57.6226 41.8639 57.3187 41.5032 57.12 41.0791C56.9211 40.6105 56.7735 40.1199 56.68 39.6166C56.5888 39.0471 56.5453 38.4704 56.55 37.893C56.5502 37.4355 56.5769 36.9785 56.63 36.5245C56.7153 36.0818 56.8391 35.6482 57 35.2291C57.1187 34.8561 57.2906 34.5039 57.51 34.1845C57.7235 33.892 57.9968 33.6529 58.31 33.4846C58.6348 33.2972 58.999 33.1968 59.37 33.1921V33.1921ZM59.37 33.9546C59.03 33.9469 58.6992 34.0695 58.44 34.2994C58.1644 34.5587 57.9607 34.8907 57.85 35.2604C57.7102 35.6597 57.6097 36.0727 57.55 36.4931C57.4884 36.9464 57.4584 37.4038 57.46 37.8616C57.458 38.3195 57.4881 38.7768 57.55 39.2301C57.611 39.6503 57.7114 40.0632 57.85 40.4628C57.9655 40.8242 58.1688 41.1481 58.44 41.403C58.7028 41.6249 59.032 41.7433 59.37 41.7372C59.7019 41.7438 60.025 41.6251 60.28 41.403C60.5588 41.1531 60.7664 40.8278 60.88 40.4628C61.0209 40.0639 61.1214 39.6508 61.18 39.2301C61.2496 38.7776 61.283 38.3199 61.28 37.8616C61.2826 37.4034 61.2492 36.9457 61.18 36.4931C61.1226 36.0722 61.022 35.6589 60.88 35.2604C60.7698 34.8879 60.5619 34.555 60.28 34.2994C60.0284 34.07 59.7038 33.9471 59.37 33.9546V33.9546ZM67.15 33.4114V42.2909H66.29V34.5605L64.75 35.929L64.22 35.3022L66.38 33.4428L67.15 33.4114ZM74.61 33.4114L72.23 37.2871C72.5899 37.0469 73.0139 36.9335 73.44 36.9632C73.7853 36.9529 74.129 37.0169 74.4497 37.1512C74.7704 37.2855 75.0612 37.4873 75.3041 37.7439C75.547 38.0006 75.7368 38.3067 75.8617 38.6433C75.9865 38.9798 76.0438 39.3395 76.03 39.7002C76.0418 40.0745 75.9785 40.4472 75.8441 40.7945C75.7098 41.1417 75.5074 41.4557 75.25 41.7163C74.7 42.2303 73.9879 42.5144 73.25 42.5144C72.512 42.5144 71.8 42.2303 71.25 41.7163C70.9925 41.4557 70.7902 41.1417 70.6558 40.7945C70.5215 40.4472 70.4582 40.0745 70.47 39.7002C70.51 38.8373 70.7764 38.0025 71.24 37.2871L73.56 33.3905L74.61 33.4114ZM71.91 38.2795C71.5644 38.6708 71.3811 39.189 71.4 39.7211C71.3903 39.9879 71.4322 40.254 71.5233 40.5035C71.6143 40.753 71.7527 40.9808 71.93 41.1731C72.1057 41.3628 72.3175 41.5118 72.5518 41.6108C72.786 41.7097 73.0375 41.7564 73.29 41.7477C73.5427 41.7584 73.7948 41.7126 74.0293 41.6136C74.2638 41.5145 74.4754 41.3644 74.65 41.1731C74.9922 40.776 75.1816 40.2606 75.1816 39.7263C75.1816 39.192 74.9922 38.6766 74.65 38.2795C74.4751 38.088 74.2637 37.9369 74.0294 37.8362C73.7951 37.7354 73.5432 37.6871 73.29 37.6945C73.0336 37.6861 72.7784 37.7339 72.5408 37.8346C72.3031 37.9353 72.0883 38.0869 71.91 38.2795V38.2795ZM80.91 42.2909V36.42H84.63V37.1408H81.67V42.2909H80.91ZM88.38 42.4371C87.9849 42.4504 87.5914 42.3794 87.2235 42.2285C86.8556 42.0777 86.5209 41.8501 86.24 41.5596C85.7005 40.9641 85.4 40.1753 85.4 39.3555C85.4 38.5356 85.7005 37.7468 86.24 37.1513C86.8239 36.5874 87.5898 36.2742 88.385 36.2742C89.1801 36.2742 89.9461 36.5874 90.53 37.1513C91.0857 37.738 91.3974 38.5301 91.3974 39.3555C91.3974 40.1808 91.0857 40.9729 90.53 41.5596C90.2424 41.8585 89.898 42.091 89.5191 42.2422C89.1401 42.3933 88.735 42.4597 88.33 42.4371H88.38ZM88.38 41.7163C88.6693 41.7287 88.9577 41.6754 89.2253 41.56C89.4929 41.4445 89.7333 41.2698 89.93 41.0478C90.3109 40.5736 90.5197 39.9744 90.5197 39.3555C90.5197 38.7365 90.3109 38.1373 89.93 37.6631C89.7343 37.4392 89.4942 37.2625 89.2266 37.1453C88.9589 37.028 88.67 36.973 88.38 36.9841C88.0826 36.9723 87.7865 37.0299 87.5131 37.1528C87.2398 37.2757 86.9962 37.4607 86.8 37.6945C86.4198 38.1669 86.2114 38.7644 86.2114 39.3816C86.2114 39.9988 86.4198 40.5962 86.8 41.0687C86.9962 41.2842 87.2342 41.4534 87.498 41.5651C87.7619 41.6768 88.0455 41.7284 88.33 41.7163H88.38ZM92.21 44.1921V41.5492H92.85C93.519 40.4946 93.8354 39.2385 93.75 37.9765V36.42H97.84V41.5492H98.74V44.1921H97.98V42.2909H92.98V44.1921H92.21ZM93.78 41.5492H97V37.1408H94.5V38.1855C94.5274 39.3575 94.262 40.5169 93.73 41.5492H93.78ZM101.78 42.4371C101.297 42.4426 100.825 42.2891 100.43 41.9984C100.234 41.8437 100.077 41.6406 99.9741 41.4073C99.8711 41.174 99.825 40.9177 99.84 40.6613C99.835 40.3996 99.8827 40.1398 99.98 39.8987C100.072 39.6732 100.225 39.4807 100.42 39.345C100.61 39.1997 100.819 39.0836 101.04 39.0003C101.309 38.9018 101.587 38.8352 101.87 38.8018C102.171 38.7555 102.475 38.7276 102.78 38.7182C103.067 38.7182 103.4 38.7182 103.78 38.7182V38.5302C103.804 38.3206 103.781 38.1082 103.713 37.9093C103.646 37.7105 103.535 37.5308 103.39 37.3841C103.244 37.2374 103.069 37.1278 102.876 37.0639C102.684 36.9999 102.48 36.9834 102.28 37.0154C101.971 37.0057 101.664 37.0618 101.377 37.1803C101.09 37.2989 100.829 37.4774 100.61 37.7049L100.16 37.1408C100.454 36.8546 100.801 36.6331 101.179 36.4895C101.557 36.346 101.958 36.2832 102.36 36.3051C102.934 36.2778 103.498 36.4753 103.94 36.8588C104.147 37.058 104.309 37.3029 104.415 37.5757C104.52 37.8485 104.567 38.1424 104.55 38.4362V41.006C104.544 41.4466 104.574 41.887 104.64 42.3222H103.91C103.86 42.0079 103.833 41.6902 103.83 41.3716V41.3716C103.598 41.7314 103.278 42.0198 102.904 42.2072C102.529 42.3945 102.114 42.4739 101.7 42.4371H101.78ZM102 41.7372C102.245 41.7493 102.489 41.705 102.715 41.6075C102.941 41.51 103.145 41.3617 103.31 41.1731C103.638 40.7971 103.814 40.3028 103.8 39.7942V39.3555H103.56C103.18 39.3555 102.83 39.3555 102.56 39.3555C102.256 39.3771 101.954 39.4295 101.66 39.5121C101.397 39.5771 101.155 39.7141 100.96 39.9091C100.877 39.9947 100.812 40.0974 100.769 40.2107C100.726 40.324 100.706 40.4454 100.71 40.5672C100.699 40.7319 100.729 40.8967 100.795 41.0464C100.861 41.1961 100.963 41.3259 101.09 41.4238C101.335 41.6042 101.621 41.7124 101.92 41.7372H102Z" fill="#0D0F5A" fill-opacity="0.5"/>
</g>
</svg>
