<svg width="112" height="112" viewBox="0 0 112 112" fill="none" xmlns="http://www.w3.org/2000/svg">
<path d="M51.9299 83.1587C40.4126 79.8232 30.6917 72.05 24.9046 61.5485C19.1175 51.047 17.7382 38.677 21.0699 27.1587C27.9999 3.16871 40.5199 32.7887 64.4999 39.7287C88.4799 46.6687 114.88 28.3187 107.94 52.2987C104.604 63.8182 96.8297 73.541 86.3259 79.3283C75.8221 85.1156 63.4495 86.4934 51.9299 83.1587Z" fill="#FFC774"/>
<path d="M19.06 72.4981H13.22L20.5 61.9981C19.5465 62.3761 18.5252 62.5531 17.5 62.5181C16.3095 62.5249 15.1295 62.294 14.0293 61.8391C12.9291 61.3842 11.9307 60.7143 11.0925 59.8688C10.2544 59.0232 9.5934 58.0189 9.14824 56.9147C8.70308 55.8105 8.48271 54.6285 8.50002 53.4381C8.44531 52.1051 8.67772 50.7759 9.18152 49.5406C9.68531 48.3053 10.4487 47.1926 11.42 46.2781C13.4295 44.4236 16.0869 43.4325 18.82 43.5181C20.177 43.4756 21.529 43.7011 22.7987 44.1815C24.0685 44.662 25.2311 45.388 26.22 46.3181C27.1826 47.1925 27.948 48.2618 28.4653 49.455C28.9826 50.6481 29.2398 51.9378 29.22 53.2381C29.2399 54.6444 28.9957 56.0419 28.5 57.3581C27.9024 58.8378 27.1657 60.2575 26.3 61.5981L19.06 72.4981ZM24.18 53.0581C24.2206 51.5765 23.6743 50.1388 22.66 49.0581C22.1625 48.5195 21.555 48.0943 20.8786 47.8113C20.2022 47.5283 19.4728 47.3942 18.74 47.4181C17.9976 47.3828 17.2563 47.5074 16.5662 47.7834C15.8761 48.0595 15.2533 48.4805 14.74 49.0181C14.2375 49.5676 13.8481 50.2108 13.5942 50.9109C13.3402 51.6109 13.2267 52.3541 13.26 53.0981C13.2285 53.8297 13.3432 54.5603 13.5973 55.2471C13.8514 55.9339 14.2399 56.5632 14.74 57.0981C15.2402 57.617 15.8444 58.0243 16.5131 58.2932C17.1818 58.562 17.8998 58.6864 18.62 58.6581C19.3589 58.6933 20.0969 58.5727 20.7861 58.3039C21.4752 58.0351 22.1001 57.6243 22.62 57.0981C23.1414 56.5663 23.5486 55.9337 23.8169 55.239C24.0851 54.5444 24.2087 53.8022 24.18 53.0581ZM50.51 47.4181C52.25 50.0847 53.1167 53.7248 53.11 58.3381C53.1034 62.9514 52.2367 66.5914 50.51 69.2581C49.7481 70.5176 48.665 71.5518 47.3717 72.2547C46.0783 72.9576 44.6213 73.3039 43.15 73.2581C41.6678 73.3037 40.1997 72.958 38.8936 72.2558C37.5875 71.5536 36.4894 70.5197 35.71 69.2581C33.9767 66.5914 33.11 62.9514 33.11 58.3381C33.11 53.7248 33.9767 50.0847 35.71 47.4181C36.4894 46.1565 37.5875 45.1226 38.8936 44.4203C40.1997 43.7181 41.6678 43.3724 43.15 43.4181C44.6213 43.3723 46.0783 43.7186 47.3717 44.4215C48.665 45.1244 49.7481 46.1586 50.51 47.4181ZM48 61.7381C48.2667 59.4793 48.2667 57.1969 48 54.9381C47.8581 53.7599 47.6172 52.5958 47.28 51.4581C47.0253 50.3765 46.4868 49.3823 45.72 48.5781C45.3999 48.2171 45.0052 47.93 44.5632 47.7366C44.1212 47.5432 43.6424 47.4482 43.16 47.4581C42.6724 47.4522 42.1889 47.5488 41.741 47.7418C41.2931 47.9347 40.8907 48.2196 40.56 48.5781C39.8059 49.3915 39.2694 50.3821 39 51.4581C38.6723 52.5982 38.4317 53.7615 38.28 54.9381C38.1463 56.0665 38.0795 57.2018 38.08 58.3381C38.081 59.4743 38.1478 60.6096 38.28 61.7381C38.4317 62.9146 38.6723 64.078 39 65.2181C39.2879 66.2835 39.838 67.2598 40.6 68.0581C40.9368 68.4059 41.3413 68.6811 41.7884 68.8669C42.2355 69.0526 42.7159 69.1449 43.2 69.1381C43.6787 69.1485 44.1542 69.0576 44.5954 68.8715C45.0365 68.6854 45.4334 68.4082 45.76 68.0581C46.5268 67.2538 47.0653 66.2597 47.32 65.1781C47.6405 64.052 47.868 62.9014 48 61.7381ZM74.93 47.4181C76.6567 50.0847 77.5234 53.7248 77.53 58.3381C77.5367 62.9514 76.67 66.5914 74.93 69.2581C74.1666 70.5161 73.0831 71.5492 71.7901 72.2519C70.4972 72.9546 69.041 73.3018 67.57 73.2581C66.0878 73.3037 64.6197 72.958 63.3136 72.2558C62.0075 71.5536 60.9094 70.5197 60.13 69.2581C58.39 66.5914 57.5233 62.9514 57.53 58.3381C57.5367 53.7248 58.4034 50.0847 60.13 47.4181C60.9094 46.1565 62.0075 45.1226 63.3136 44.4203C64.6197 43.7181 66.0878 43.3724 67.57 43.4181C69.041 43.3744 70.4972 43.7216 71.7901 44.4243C73.0831 45.127 74.1666 46.16 74.93 47.4181ZM72.41 61.7381C72.6767 59.4793 72.6767 57.1969 72.41 54.9381C72.2584 53.7615 72.0177 52.5982 71.69 51.4581C71.4353 50.3765 70.8968 49.3823 70.13 48.5781C69.8086 48.2187 69.4137 47.9326 68.972 47.7393C68.5302 47.5461 68.0521 47.4502 67.57 47.4581C67.0872 47.4551 66.6091 47.5532 66.1665 47.7461C65.7239 47.939 65.3265 48.2224 65 48.5781C64.2278 49.3845 63.6768 50.3764 63.4 51.4581C63.0628 52.5958 62.822 53.7599 62.68 54.9381C62.5413 56.066 62.4745 57.2017 62.48 58.3381C62.476 59.4745 62.5428 60.61 62.68 61.7381C62.822 62.9162 63.0628 64.0803 63.4 65.2181C63.6839 66.2851 64.2345 67.2624 65 68.0581C65.3361 68.4068 65.7404 68.6827 66.1877 68.8685C66.635 69.0543 67.1157 69.1461 67.6 69.1381C68.0785 69.1466 68.5534 69.0549 68.9943 68.8689C69.4352 68.6829 69.8323 68.4067 70.16 68.0581C70.9268 67.2538 71.4653 66.2597 71.72 65.1781C72.0344 64.05 72.265 62.9002 72.41 61.7381Z" fill="#0D0F5A" fill-opacity="0.5"/>
<path d="M66.73 91.22C55.5655 96.2508 42.86 96.6414 31.4076 92.3057C19.9552 87.97 10.6937 79.2632 5.65999 68.1C4.57298 65.8984 3.85348 63.5339 3.52999 61.1C3.31093 59.7172 3.64896 58.304 4.46999 57.17C5.39688 56.1564 6.61689 55.4573 7.95999 55.17C9.85017 54.7014 11.7838 54.4299 13.73 54.36C15.61 54.25 17.67 54.21 19.88 54.17H21.19C23.89 54.11 26.77 54.03 29.75 53.8C36.032 53.4622 42.2074 52.0342 48 49.58C53.6507 46.862 58.7869 43.1841 63.18 38.71C65.32 36.64 67.29 34.53 69.12 32.54L70.01 31.54C71.5 30 72.9 28.44 74.23 27.1C75.5713 25.6865 77.0559 24.4163 78.66 23.31C79.7598 22.4821 81.0935 22.0235 82.47 22C83.8556 22.1512 85.1248 22.8452 86 23.93C87.604 25.7793 88.8913 27.8809 89.81 30.15C94.8461 41.3092 95.2438 54.0118 90.9157 65.4641C86.5875 76.9165 77.8879 86.181 66.73 91.22V91.22Z" stroke="#EAEAEA"/>
<path d="M9.57812 36.5022V30.8822H10.7581L12.8281 35.2922L14.8981 30.8822H16.0681V36.5022H15.2581V31.8622L12.9981 36.5022H12.5781L10.3681 31.8622V36.5022H9.57812ZM17.8781 36.5622C17.6725 36.5672 17.4672 36.5437 17.2681 36.4922L17.3581 35.7822C17.484 35.823 17.6157 35.8433 17.7481 35.8422C17.9687 35.8523 18.1864 35.7891 18.3673 35.6625C18.5482 35.5358 18.6821 35.3529 18.7481 35.1422C18.9854 34.3795 19.0704 33.5776 18.9981 32.7822V30.8822H22.9981V36.5022H22.1881V31.5722H19.8381V33.0722C19.8813 33.9591 19.7241 34.8444 19.3781 35.6622C19.2478 35.9458 19.0349 36.1834 18.7672 36.344C18.4996 36.5046 18.1897 36.5806 17.8781 36.5622ZM25.2181 36.5022V30.8822H25.9981V33.2422H29.2281V30.8822H30.0381V36.5022H29.2281V33.9222H25.9981V36.5022H25.2181ZM33.2181 35.5022C33.2791 35.5601 33.3274 35.6299 33.3601 35.7073C33.3928 35.7848 33.4092 35.8681 33.4081 35.9522C33.41 36.0378 33.394 36.1229 33.3613 36.2021C33.3286 36.2813 33.2799 36.3528 33.2181 36.4122C33.1599 36.4755 33.0886 36.5252 33.0091 36.5581C32.9297 36.5909 32.844 36.6059 32.7581 36.6022C32.6723 36.6053 32.5869 36.5899 32.5075 36.5571C32.4281 36.5244 32.3567 36.4749 32.2981 36.4122C32.1836 36.2884 32.1199 36.1259 32.1199 35.9572C32.1199 35.7885 32.1836 35.626 32.2981 35.5022C32.3567 35.4394 32.4281 35.39 32.5075 35.3572C32.5869 35.3245 32.6723 35.3091 32.7581 35.3122C32.9137 35.308 33.0647 35.3655 33.1781 35.4722L33.2181 35.5022ZM37.9981 39.3822V30.8822H38.8081V31.8822C39.0273 31.5279 39.343 31.2434 39.7181 31.0622C40.0882 30.8671 40.4998 30.7642 40.9181 30.7622C41.3086 30.7453 41.6982 30.8124 42.0605 30.9591C42.4227 31.1057 42.7493 31.3284 43.0181 31.6122C43.5395 32.1893 43.8282 32.9394 43.8282 33.7172C43.8282 34.495 43.5395 35.2451 43.0181 35.8222C42.7473 36.1026 42.4201 36.3224 42.0581 36.4672C41.6962 36.612 41.3076 36.6784 40.9181 36.6622C40.5051 36.6625 40.0977 36.5666 39.7281 36.3822C39.3568 36.196 39.0399 35.917 38.8081 35.5722V39.4022L37.9981 39.3822ZM40.8781 36.0022C41.1674 36.0141 41.4558 35.963 41.7234 35.8525C41.9911 35.742 42.2315 35.5747 42.4281 35.3622C42.7965 34.9026 42.9973 34.3312 42.9973 33.7422C42.9973 33.1532 42.7965 32.5818 42.4281 32.1222C42.2324 31.9079 41.9924 31.7387 41.7247 31.6265C41.4571 31.5142 41.1682 31.4616 40.8781 31.4722C40.5881 31.4616 40.2992 31.5142 40.0315 31.6265C39.7639 31.7387 39.5238 31.9079 39.3281 32.1222C38.9357 32.5706 38.7194 33.1463 38.7194 33.7422C38.7194 34.3381 38.9357 34.9137 39.3281 35.3622C39.5248 35.5747 39.7652 35.742 40.0328 35.8525C40.3004 35.963 40.5888 36.0141 40.8781 36.0022ZM45.6381 39.4322C45.393 39.4342 45.1484 39.4107 44.9081 39.3622L44.9881 38.6122C45.1806 38.6809 45.3838 38.7148 45.5881 38.7122C45.7065 38.7186 45.8248 38.6996 45.9352 38.6565C46.0456 38.6134 46.1455 38.5471 46.2281 38.4622C46.428 38.2475 46.5782 37.9914 46.6681 37.7122L47.1281 36.5422L44.7281 30.9322H45.6381L47.5481 35.6722L49.2881 30.9322H50.1781L47.3981 38.0022C47.2497 38.3825 47.0172 38.7243 46.7181 39.0022C46.4209 39.2639 46.0337 39.4001 45.6381 39.3822V39.4322ZM54.2881 36.6922C53.8132 36.7278 53.3372 36.6386 52.9074 36.4334C52.4776 36.2281 52.109 35.914 51.8381 35.5222C51.4274 34.7024 51.2477 33.7863 51.3181 32.8722C51.308 32.2478 51.3347 31.6234 51.3981 31.0022C51.4565 30.5164 51.574 30.0395 51.7481 29.5822C51.9027 29.1757 52.1785 28.8266 52.5381 28.5822C52.9259 28.2742 53.3882 28.0741 53.8781 28.0022L55.5881 27.8022C55.8189 27.7807 56.045 27.7233 56.2581 27.6322C56.3392 27.595 56.4114 27.5409 56.47 27.4737C56.5286 27.4065 56.5723 27.3276 56.5981 27.2422L57.1781 27.4222C57.1193 27.7059 56.9638 27.9604 56.7381 28.1422C56.4705 28.3242 56.1606 28.4343 55.8381 28.4622L54.2381 28.6622C53.9036 28.6733 53.5753 28.7558 53.2752 28.9042C52.9751 29.0525 52.7102 29.2632 52.4981 29.5222C52.0919 30.3431 51.9189 31.2597 51.9981 32.1722C52.2209 31.713 52.5764 31.3313 53.0185 31.0763C53.4607 30.8214 53.9691 30.705 54.4781 30.7422C54.8521 30.7313 55.2242 30.8006 55.5691 30.9455C55.9141 31.0904 56.2241 31.3075 56.4781 31.5822C57.002 32.1577 57.2816 32.9143 57.2581 33.6922C57.2701 34.0836 57.2008 34.4732 57.0545 34.8364C56.9081 35.1995 56.6881 35.5284 56.4081 35.8022C56.1292 36.0773 55.7977 36.2934 55.4335 36.4377C55.0693 36.582 54.6798 36.6515 54.2881 36.6422V36.6922ZM54.2881 36.0022C54.5774 36.0141 54.8658 35.963 55.1334 35.8525C55.4011 35.742 55.6415 35.5747 55.8381 35.3622C56.219 34.9083 56.4278 34.3347 56.4278 33.7422C56.4278 33.1497 56.219 32.5761 55.8381 32.1222C55.6424 31.9079 55.4024 31.7387 55.1347 31.6265C54.8671 31.5142 54.5782 31.4616 54.2881 31.4722C54.0014 31.4645 53.7164 31.5185 53.4524 31.6307C53.1884 31.7428 52.9516 31.9105 52.7581 32.1222C52.378 32.5745 52.1695 33.1464 52.1695 33.7372C52.1695 34.328 52.378 34.8999 52.7581 35.3522C52.9516 35.5639 53.1884 35.7315 53.4524 35.8437C53.7164 35.9558 54.0014 36.0099 54.2881 36.0022ZM59.9981 35.4722C60.0591 35.5301 60.1074 35.5999 60.1401 35.6773C60.1728 35.7548 60.1892 35.8381 60.1881 35.9222C60.1899 36.0078 60.174 36.0929 60.1413 36.1721C60.1086 36.2513 60.0599 36.3228 59.9981 36.3822C59.9399 36.4455 59.8686 36.4952 59.7891 36.5281C59.7097 36.5609 59.624 36.5759 59.5381 36.5722C59.4523 36.5753 59.3669 36.5599 59.2875 36.5271C59.2081 36.4944 59.1367 36.4449 59.0781 36.3822C58.9636 36.2584 58.8999 36.0959 58.8999 35.9272C58.8999 35.7585 58.9636 35.596 59.0781 35.4722C59.1367 35.4095 59.2081 35.36 59.2875 35.3272C59.3669 35.2945 59.4523 35.2791 59.5381 35.2822C59.624 35.2784 59.7097 35.2935 59.7891 35.3263C59.8686 35.3591 59.9399 35.4089 59.9981 35.4722Z" fill="#0D0F5A" fill-opacity="0.5"/>
<mask id="mask0_1_427" style="mask-type:alpha" maskUnits="userSpaceOnUse" x="19" y="17" width="91" height="68">
<path d="M51.9299 83.1626C40.4126 79.8271 30.6917 72.0539 24.9046 61.5524C19.1175 51.0509 17.7382 38.6809 21.0699 27.1626C27.9999 3.17262 40.5199 32.7926 64.4999 39.7326C88.4799 46.6726 114.88 28.3226 107.94 52.3026C104.604 63.8221 96.8297 73.5449 86.3259 79.3322C75.8221 85.1195 63.4495 86.4974 51.9299 83.1626Z" fill="#FFC774"/>
</mask>
<g mask="url(#mask0_1_427)">
<path d="M19.06 72.502H13.22L20.5 62.002C19.5465 62.38 18.5252 62.557 17.5 62.522C16.3095 62.5288 15.1295 62.2979 14.0293 61.843C12.9291 61.3881 11.9307 60.7183 11.0925 59.8727C10.2544 59.0271 9.5934 58.0228 9.14824 56.9186C8.70308 55.8144 8.48271 54.6324 8.50002 53.442C8.44531 52.109 8.67772 50.7798 9.18152 49.5445C9.68531 48.3092 10.4487 47.1965 11.42 46.282C13.4295 44.4275 16.0869 43.4364 18.82 43.522C20.177 43.4795 21.529 43.705 22.7987 44.1854C24.0685 44.6659 25.2311 45.3919 26.22 46.322C27.1826 47.1964 27.948 48.2657 28.4653 49.4589C28.9826 50.6521 29.2398 51.9417 29.22 53.242C29.2399 54.6483 28.9957 56.0458 28.5 57.362C27.9024 58.8417 27.1657 60.2614 26.3 61.602L19.06 72.502ZM24.18 53.062C24.2206 51.5804 23.6743 50.1427 22.66 49.062C22.1625 48.5234 21.555 48.0982 20.8786 47.8152C20.2022 47.5322 19.4728 47.3981 18.74 47.422C17.9976 47.3867 17.2563 47.5113 16.5662 47.7873C15.8761 48.0634 15.2533 48.4844 14.74 49.022C14.2375 49.5716 13.8481 50.2147 13.5942 50.9148C13.3402 51.6148 13.2267 52.358 13.26 53.102C13.2285 53.8336 13.3432 54.5642 13.5973 55.251C13.8514 55.9378 14.2399 56.5671 14.74 57.102C15.2402 57.6209 15.8444 58.0282 16.5131 58.2971C17.1818 58.5659 17.8998 58.6903 18.62 58.662C19.3589 58.6973 20.0969 58.5766 20.7861 58.3078C21.4752 58.039 22.1001 57.6282 22.62 57.102C23.1414 56.5702 23.5486 55.9376 23.8169 55.2429C24.0851 54.5483 24.2087 53.8061 24.18 53.062ZM50.51 47.422C52.25 50.0887 53.1167 53.7287 53.11 58.342C53.1034 62.9553 52.2367 66.5953 50.51 69.262C49.7481 70.5215 48.665 71.5557 47.3717 72.2586C46.0783 72.9615 44.6213 73.3078 43.15 73.262C41.6678 73.3076 40.1997 72.962 38.8936 72.2597C37.5875 71.5575 36.4894 70.5236 35.71 69.262C33.9767 66.5953 33.11 62.9553 33.11 58.342C33.11 53.7287 33.9767 50.0887 35.71 47.422C36.4894 46.1604 37.5875 45.1265 38.8936 44.4243C40.1997 43.722 41.6678 43.3763 43.15 43.422C44.6213 43.3762 46.0783 43.7225 47.3717 44.4254C48.665 45.1283 49.7481 46.1625 50.51 47.422ZM48 61.742C48.2667 59.4832 48.2667 57.2008 48 54.942C47.8581 53.7638 47.6172 52.5997 47.28 51.462C47.0253 50.3804 46.4868 49.3862 45.72 48.582C45.3999 48.221 45.0052 47.9339 44.5632 47.7405C44.1212 47.5471 43.6424 47.4521 43.16 47.462C42.6724 47.4561 42.1889 47.5527 41.741 47.7457C41.2931 47.9386 40.8907 48.2235 40.56 48.582C39.8059 49.3954 39.2694 50.386 39 51.462C38.6723 52.6021 38.4317 53.7654 38.28 54.942C38.1463 56.0704 38.0795 57.2057 38.08 58.342C38.081 59.4782 38.1478 60.6135 38.28 61.742C38.4317 62.9185 38.6723 64.0819 39 65.222C39.2879 66.2874 39.838 67.2637 40.6 68.062C40.9368 68.4098 41.3413 68.685 41.7884 68.8708C42.2355 69.0565 42.7159 69.1488 43.2 69.142C43.6787 69.1524 44.1542 69.0615 44.5954 68.8754C45.0365 68.6893 45.4334 68.4121 45.76 68.062C46.5268 67.2577 47.0653 66.2636 47.32 65.182C47.6405 64.0559 47.868 62.9054 48 61.742ZM74.93 47.422C76.6567 50.0887 77.5234 53.7287 77.53 58.342C77.5367 62.9553 76.67 66.5953 74.93 69.262C74.1666 70.5201 73.0831 71.5531 71.7901 72.2558C70.4972 72.9585 69.041 73.3057 67.57 73.262C66.0878 73.3076 64.6197 72.962 63.3136 72.2597C62.0075 71.5575 60.9094 70.5236 60.13 69.262C58.39 66.5953 57.5233 62.9553 57.53 58.342C57.5367 53.7287 58.4034 50.0887 60.13 47.422C60.9094 46.1604 62.0075 45.1265 63.3136 44.4243C64.6197 43.722 66.0878 43.3763 67.57 43.422C69.041 43.3783 70.4972 43.7255 71.7901 44.4282C73.0831 45.1309 74.1666 46.1639 74.93 47.422ZM72.41 61.742C72.6767 59.4832 72.6767 57.2008 72.41 54.942C72.2584 53.7654 72.0177 52.6021 71.69 51.462C71.4353 50.3804 70.8968 49.3862 70.13 48.582C69.8086 48.2226 69.4137 47.9365 68.972 47.7432C68.5302 47.55 68.0521 47.4541 67.57 47.462C67.0872 47.459 66.6091 47.5572 66.1665 47.75C65.7239 47.9429 65.3265 48.2263 65 48.582C64.2278 49.3884 63.6768 50.3803 63.4 51.462C63.0628 52.5997 62.822 53.7638 62.68 54.942C62.5413 56.0699 62.4745 57.2056 62.48 58.342C62.476 59.4784 62.5428 60.6139 62.68 61.742C62.822 62.9201 63.0628 64.0842 63.4 65.222C63.6839 66.289 64.2345 67.2663 65 68.062C65.3361 68.4107 65.7404 68.6866 66.1877 68.8724C66.635 69.0582 67.1157 69.15 67.6 69.142C68.0785 69.1505 68.5534 69.0588 68.9943 68.8728C69.4352 68.6868 69.8323 68.4106 70.16 68.062C70.9268 67.2577 71.4653 66.2636 71.72 65.182C72.0344 64.0539 72.265 62.9041 72.41 61.742Z" fill="#0D0F5A" fill-opacity="0.5"/>
<path d="M9.57812 36.5022V30.8822H10.7581L12.8281 35.2922L14.8981 30.8822H16.0681V36.5022H15.2581V31.8622L12.9981 36.5022H12.5781L10.3681 31.8622V36.5022H9.57812ZM17.8781 36.5622C17.6725 36.5672 17.4672 36.5437 17.2681 36.4922L17.3581 35.7822C17.484 35.823 17.6157 35.8433 17.7481 35.8422C17.9687 35.8523 18.1864 35.7891 18.3673 35.6625C18.5482 35.5358 18.6821 35.3529 18.7481 35.1422C18.9854 34.3795 19.0704 33.5776 18.9981 32.7822V30.8822H22.9981V36.5022H22.1881V31.5722H19.8381V33.0722C19.8813 33.9591 19.7241 34.8444 19.3781 35.6622C19.2478 35.9458 19.0349 36.1834 18.7672 36.344C18.4996 36.5046 18.1897 36.5806 17.8781 36.5622ZM25.2181 36.5022V30.8822H25.9981V33.2422H29.2281V30.8822H30.0381V36.5022H29.2281V33.9222H25.9981V36.5022H25.2181ZM33.2181 35.5022C33.2791 35.5601 33.3274 35.6299 33.3601 35.7073C33.3928 35.7848 33.4092 35.8681 33.4081 35.9522C33.41 36.0378 33.394 36.1229 33.3613 36.2021C33.3286 36.2813 33.2799 36.3528 33.2181 36.4122C33.1599 36.4755 33.0886 36.5252 33.0091 36.5581C32.9297 36.5909 32.844 36.6059 32.7581 36.6022C32.6723 36.6053 32.5869 36.5899 32.5075 36.5571C32.4281 36.5244 32.3567 36.4749 32.2981 36.4122C32.1836 36.2884 32.1199 36.1259 32.1199 35.9572C32.1199 35.7885 32.1836 35.626 32.2981 35.5022C32.3567 35.4394 32.4281 35.39 32.5075 35.3572C32.5869 35.3245 32.6723 35.3091 32.7581 35.3122C32.9137 35.308 33.0647 35.3655 33.1781 35.4722L33.2181 35.5022ZM37.9981 39.3822V30.8822H38.8081V31.8822C39.0273 31.5279 39.343 31.2434 39.7181 31.0622C40.0882 30.8671 40.4998 30.7642 40.9181 30.7622C41.3086 30.7453 41.6982 30.8124 42.0605 30.9591C42.4227 31.1057 42.7493 31.3284 43.0181 31.6122C43.5395 32.1893 43.8282 32.9394 43.8282 33.7172C43.8282 34.495 43.5395 35.2451 43.0181 35.8222C42.7473 36.1026 42.4201 36.3224 42.0581 36.4672C41.6962 36.612 41.3076 36.6784 40.9181 36.6622C40.5051 36.6625 40.0977 36.5666 39.7281 36.3822C39.3568 36.196 39.0399 35.917 38.8081 35.5722V39.4022L37.9981 39.3822ZM40.8781 36.0022C41.1674 36.0141 41.4558 35.963 41.7234 35.8525C41.9911 35.742 42.2315 35.5747 42.4281 35.3622C42.7965 34.9026 42.9973 34.3312 42.9973 33.7422C42.9973 33.1532 42.7965 32.5818 42.4281 32.1222C42.2324 31.9079 41.9924 31.7387 41.7247 31.6265C41.4571 31.5142 41.1682 31.4616 40.8781 31.4722C40.5881 31.4616 40.2992 31.5142 40.0315 31.6265C39.7639 31.7387 39.5238 31.9079 39.3281 32.1222C38.9357 32.5706 38.7194 33.1463 38.7194 33.7422C38.7194 34.3381 38.9357 34.9137 39.3281 35.3622C39.5248 35.5747 39.7652 35.742 40.0328 35.8525C40.3004 35.963 40.5888 36.0141 40.8781 36.0022ZM45.6381 39.4322C45.393 39.4342 45.1484 39.4107 44.9081 39.3622L44.9881 38.6122C45.1806 38.6809 45.3838 38.7148 45.5881 38.7122C45.7065 38.7186 45.8248 38.6996 45.9352 38.6565C46.0456 38.6134 46.1455 38.5471 46.2281 38.4622C46.428 38.2475 46.5782 37.9914 46.6681 37.7122L47.1281 36.5422L44.7281 30.9322H45.6381L47.5481 35.6722L49.2881 30.9322H50.1781L47.3981 38.0022C47.2497 38.3825 47.0172 38.7243 46.7181 39.0022C46.4209 39.2639 46.0337 39.4001 45.6381 39.3822V39.4322ZM54.2881 36.6922C53.8132 36.7278 53.3372 36.6386 52.9074 36.4334C52.4776 36.2281 52.109 35.914 51.8381 35.5222C51.4274 34.7024 51.2477 33.7863 51.3181 32.8722C51.308 32.2478 51.3347 31.6234 51.3981 31.0022C51.4565 30.5164 51.574 30.0395 51.7481 29.5822C51.9027 29.1757 52.1785 28.8266 52.5381 28.5822C52.9259 28.2742 53.3882 28.0741 53.8781 28.0022L55.5881 27.8022C55.8189 27.7807 56.045 27.7233 56.2581 27.6322C56.3392 27.595 56.4114 27.5409 56.47 27.4737C56.5286 27.4065 56.5723 27.3276 56.5981 27.2422L57.1781 27.4222C57.1193 27.7059 56.9638 27.9604 56.7381 28.1422C56.4705 28.3242 56.1606 28.4343 55.8381 28.4622L54.2381 28.6622C53.9036 28.6733 53.5753 28.7558 53.2752 28.9042C52.9751 29.0525 52.7102 29.2632 52.4981 29.5222C52.0919 30.3431 51.9189 31.2597 51.9981 32.1722C52.2209 31.713 52.5764 31.3313 53.0185 31.0763C53.4607 30.8214 53.9691 30.705 54.4781 30.7422C54.8521 30.7313 55.2242 30.8006 55.5691 30.9455C55.9141 31.0904 56.2241 31.3075 56.4781 31.5822C57.002 32.1577 57.2816 32.9143 57.2581 33.6922C57.2701 34.0836 57.2008 34.4732 57.0545 34.8364C56.9081 35.1995 56.6881 35.5284 56.4081 35.8022C56.1292 36.0773 55.7977 36.2934 55.4335 36.4377C55.0693 36.582 54.6798 36.6515 54.2881 36.6422V36.6922ZM54.2881 36.0022C54.5774 36.0141 54.8658 35.963 55.1334 35.8525C55.4011 35.742 55.6415 35.5747 55.8381 35.3622C56.219 34.9083 56.4278 34.3347 56.4278 33.7422C56.4278 33.1497 56.219 32.5761 55.8381 32.1222C55.6424 31.9079 55.4024 31.7387 55.1347 31.6265C54.8671 31.5142 54.5782 31.4616 54.2881 31.4722C54.0014 31.4645 53.7164 31.5185 53.4524 31.6307C53.1884 31.7428 52.9516 31.9105 52.7581 32.1222C52.378 32.5745 52.1695 33.1464 52.1695 33.7372C52.1695 34.328 52.378 34.8999 52.7581 35.3522C52.9516 35.5639 53.1884 35.7315 53.4524 35.8437C53.7164 35.9558 54.0014 36.0099 54.2881 36.0022ZM59.9981 35.4722C60.0591 35.5301 60.1074 35.5999 60.1401 35.6773C60.1728 35.7548 60.1892 35.8381 60.1881 35.9222C60.1899 36.0078 60.174 36.0929 60.1413 36.1721C60.1086 36.2513 60.0599 36.3228 59.9981 36.3822C59.9399 36.4455 59.8686 36.4952 59.7891 36.5281C59.7097 36.5609 59.624 36.5759 59.5381 36.5722C59.4523 36.5753 59.3669 36.5599 59.2875 36.5271C59.2081 36.4944 59.1367 36.4449 59.0781 36.3822C58.9636 36.2584 58.8999 36.0959 58.8999 35.9272C58.8999 35.7585 58.9636 35.596 59.0781 35.4722C59.1367 35.4095 59.2081 35.36 59.2875 35.3272C59.3669 35.2945 59.4523 35.2791 59.5381 35.2822C59.624 35.2784 59.7097 35.2935 59.7891 35.3263C59.8686 35.3591 59.9399 35.4089 59.9981 35.4722Z" fill="#0D0F5A" fill-opacity="0.5"/>
</g>
</svg>
